<?xml version="1.0" standalone="no"?>
<!DOCTYPE svg PUBLIC "-//W3C//DTD SVG 20010904//EN"
 "http://www.w3.org/TR/2001/REC-SVG-20010904/DTD/svg10.dtd">
<svg version="1.0" xmlns="http://www.w3.org/2000/svg"
 width="1024.000000pt" height="697.000000pt" viewBox="0 0 1024.000000 697.000000"
 preserveAspectRatio="xMidYMid meet">

<g transform="translate(0.000000,697.000000) scale(0.100000,-0.100000)"
fill="#000000" stroke="none">
<path d="M0 6470 c0 -400 3 -498 13 -494 7 2 17 14 22 27 6 12 17 21 27 19 18
-3 58 42 58 67 1 25 36 61 59 61 13 0 19 5 15 14 -7 19 74 83 111 88 22 2 31
-1 33 -15 5 -26 -20 -77 -38 -77 -24 0 -85 -48 -87 -68 -1 -9 -7 -31 -14 -49
-12 -30 -11 -34 11 -59 24 -25 28 -26 98 -20 40 4 80 10 90 13 9 3 14 2 9 -2
-4 -5 -1 -16 7 -24 13 -14 13 -20 0 -47 -8 -17 -26 -37 -40 -45 -27 -14 -119
-16 -173 -4 -22 5 -32 4 -28 -3 9 -13 -9 -26 -56 -43 -20 -7 -37 -16 -37 -20
0 -4 -10 -9 -22 -12 -26 -7 -49 9 -41 29 3 8 0 14 -6 14 -8 0 -11 -138 -11
-490 l0 -490 41 0 c33 0 47 -6 70 -31 l30 -32 -6 -246 c-3 -135 -8 -295 -10
-356 -2 -60 -7 -202 -10 -315 -7 -236 -12 -297 -26 -283 -25 25 -29 97 -32
678 -1 259 -6 476 -10 483 -5 6 -17 12 -28 12 -19 0 -19 -25 -19 -1769 l0
-1769 123 -6 c67 -3 352 -7 633 -9 505 -2 511 -2 480 17 -43 26 -76 58 -76 75
0 7 -6 11 -13 8 -10 -4 -13 2 -9 19 3 16 0 24 -9 24 -12 0 -12 2 0 9 11 7 9
10 -7 15 -23 8 -41 48 -24 54 6 2 8 19 5 42 -3 21 1 59 8 85 11 36 18 45 36
45 18 0 29 12 51 57 33 68 54 106 63 113 4 3 24 28 44 55 58 76 218 225 243
225 6 0 12 4 14 8 5 13 101 68 133 77 17 4 95 9 173 10 79 2 146 6 149 9 3 2
4 63 4 134 -2 106 1 131 14 142 8 7 17 11 19 9 2 -2 7 -31 10 -64 4 -33 11
-80 16 -105 5 -25 9 -60 10 -78 1 -74 51 -79 186 -19 253 111 364 126 525 74
l87 -29 56 56 c50 49 56 58 49 83 -11 41 -7 67 11 95 24 37 131 100 180 105
54 7 209 -22 268 -49 27 -12 51 -19 54 -15 7 7 -25 66 -92 168 -38 57 -59 75
-176 154 -73 49 -149 102 -168 117 -19 16 -39 32 -45 36 -5 4 -29 22 -51 40
-23 17 -45 32 -50 32 -4 0 -31 18 -60 40 -59 45 -92 50 -119 20 -21 -23 -167
-122 -233 -158 -24 -13 -94 -55 -155 -94 -62 -39 -139 -88 -172 -109 -90 -57
-162 -69 -205 -34 -19 16 -277 165 -285 165 -4 0 -21 11 -39 25 -18 14 -36 25
-40 25 -4 0 -52 30 -106 66 -69 45 -100 72 -100 85 0 10 6 19 14 19 8 0 16 6
19 13 4 9 8 9 23 -1 11 -6 26 -15 34 -19 8 -4 17 -9 20 -13 6 -7 58 -38 171
-102 13 -7 31 -18 39 -24 8 -6 40 -24 70 -40 30 -16 95 -55 145 -86 85 -55
115 -63 135 -39 20 25 206 149 399 267 62 38 132 83 155 99 l41 31 11 129 c7
72 9 151 7 177 -5 39 -2 48 16 60 11 7 21 17 21 23 -1 5 -26 26 -57 45 -94 58
-120 86 -129 133 -10 54 -7 79 16 131 55 130 233 203 353 146 36 -18 45 -28
65 -80 19 -50 22 -71 17 -118 -10 -77 -28 -113 -88 -168 -42 -40 -50 -53 -47
-78 6 -58 1 -231 -8 -288 -6 -38 -5 -63 2 -76 16 -30 379 -281 391 -271 11 11
-19 72 -52 105 -24 24 -30 49 -13 59 15 9 -29 85 -49 85 -30 0 -22 71 9 87 14
7 31 13 38 13 19 0 27 -31 11 -41 -11 -6 -6 -22 24 -81 78 -150 80 -153 121
-150 39 3 37 7 169 -208 25 -42 55 -84 66 -94 21 -19 21 -19 21 1 0 19 36 81
63 108 44 43 107 43 107 0 0 -16 -6 -25 -15 -25 -8 0 -24 -9 -35 -20 -11 -11
-23 -20 -27 -20 -5 0 -21 -20 -36 -45 -16 -25 -33 -45 -38 -45 -7 0 5 -40 17
-59 2 -2 47 15 100 38 81 35 106 41 152 39 55 -3 80 -21 45 -32 -30 -10 -19
-81 17 -106 l27 -19 45 43 c30 29 59 46 89 52 l44 10 -55 12 c-30 6 -73 15
-95 18 -22 4 -32 9 -22 11 9 3 17 10 17 17 0 7 9 21 21 32 21 19 21 18 40 -5
17 -21 28 -24 83 -24 50 0 63 -3 59 -13 -4 -10 4 -14 26 -14 19 0 31 5 31 13
0 26 26 50 43 41 8 -5 16 -13 16 -19 1 -13 21 -14 45 -2 13 6 16 6 11 -2 -4
-7 -1 -19 7 -28 10 -13 10 -17 1 -20 -9 -3 -10 -10 -3 -24 8 -14 7 -19 -2 -19
-9 0 -10 -2 -1 -8 6 -4 11 -23 11 -43 0 -21 3 -46 7 -58 4 -13 2 -21 -6 -21
-8 0 -8 -5 2 -16 21 -25 39 -84 26 -84 -6 0 -1 -7 11 -16 12 -8 22 -24 22 -34
0 -10 7 -26 16 -35 9 -9 14 -19 10 -22 -3 -3 4 -19 15 -34 11 -16 17 -35 13
-41 -4 -7 -4 -10 1 -6 4 4 21 -4 37 -17 35 -29 53 -33 40 -7 -5 9 -12 51 -14
92 -3 41 -17 111 -31 155 -14 44 -30 103 -36 130 -15 81 -29 128 -39 134 -6 3
-6 15 -1 29 11 30 17 28 12 -5 -4 -23 -2 -25 7 -13 9 12 10 11 5 -7 -5 -17 -3
-22 8 -17 7 2 27 -8 43 -24 16 -17 52 -40 79 -51 28 -12 64 -28 80 -36 39 -18
161 -55 180 -55 8 0 15 -4 15 -8 0 -5 9 -8 21 -7 27 2 94 85 78 96 -7 4 -18 5
-24 3 -26 -11 -179 38 -292 91 -65 31 -138 66 -163 77 -25 12 -52 27 -61 35
-14 11 -18 11 -29 -2 -9 -11 -9 -15 -1 -15 7 0 9 -5 5 -11 -11 -19 -27 18 -16
37 11 21 4 31 -105 142 l-82 84 -27 -21 c-37 -29 -86 -27 -174 10 -98 42 -163
84 -227 149 -69 71 -104 137 -110 210 -10 101 35 138 167 141 94 2 111 -11
178 -140 28 -55 52 -92 52 -81 0 11 -5 30 -12 43 -28 55 -30 59 -18 52 7 -4
14 1 17 13 5 22 30 32 81 32 20 0 31 4 27 10 -9 15 9 12 31 -6 10 -8 13 -12 5
-8 -9 5 -12 3 -7 -5 4 -6 11 -9 16 -6 5 3 31 -8 57 -24 78 -47 147 -65 248
-65 155 0 284 53 392 161 l63 63 0 -35 c0 -19 3 -35 8 -35 8 0 44 75 93 194
17 43 42 90 54 104 21 24 24 25 56 12 18 -8 63 -45 100 -82 36 -37 71 -68 77
-68 10 0 9 31 -2 49 -3 4 24 -2 60 -15 35 -13 88 -27 117 -30 108 -13 248 35
340 116 l46 41 3 -33 3 -33 23 35 c16 25 21 44 17 66 -3 17 1 46 9 65 13 33
12 64 -3 55 -4 -3 -7 12 -7 32 -1 20 -8 66 -16 102 -8 36 -15 76 -16 89 -1 32
-53 132 -74 145 -24 14 -73 -30 -57 -51 9 -10 6 -13 -12 -14 -42 -1 -143 2
-179 7 -25 3 -31 1 -20 -5 8 -6 11 -13 7 -17 -4 -4 -2 -13 3 -19 8 -9 -2 -14
-39 -19 -85 -11 -192 -81 -227 -148 -16 -31 -18 -74 -4 -83 6 -3 10 -2 10 4 0
5 10 13 22 17 19 6 19 7 5 16 -19 10 -22 34 -6 44 7 4 22 -7 36 -25 18 -22 33
-31 54 -31 18 0 28 -4 24 -10 -7 -11 23 -7 79 11 15 5 32 6 37 3 5 -3 23 1 39
10 18 8 76 18 138 22 59 4 110 12 114 18 13 20 23 -6 28 -74 3 -38 3 -66 1
-64 -3 2 -11 -15 -19 -38 -19 -57 -47 -92 -106 -133 -92 -62 -213 -80 -311
-46 -62 22 -176 94 -218 139 l-29 30 23 16 c22 15 22 16 3 38 -18 22 -18 22 0
8 18 -14 19 -14 8 7 -7 12 -17 25 -23 28 -14 9 -50 -25 -42 -39 3 -6 1 -6 -7
1 -18 17 0 76 39 130 45 62 163 152 267 204 89 44 93 47 76 62 -25 22 -34 22
-95 -9 -79 -40 -153 -91 -254 -176 -50 -42 -103 -84 -118 -94 -43 -28 -100
-33 -224 -17 -135 17 -332 12 -428 -12 -121 -29 -189 -70 -293 -176 -87 -89
-157 -139 -194 -139 -8 0 -23 11 -34 25 -11 13 -22 22 -24 19 -3 -3 -8 7 -10
21 -6 29 0 32 17 9 9 -13 11 3 9 77 -1 58 1 86 6 74 l9 -20 1 20 c1 18 1 19
11 3 13 -23 16 -90 6 -153 -7 -48 -7 -49 7 -20 l14 30 2 -35 1 -35 14 25 c7
14 17 23 22 21 4 -2 27 43 50 100 24 56 52 111 63 121 11 10 20 15 20 11 0 -4
11 9 25 30 14 20 40 44 58 52 18 8 46 23 62 32 30 18 38 21 74 26 18 3 65 30
88 51 39 36 97 81 105 81 5 0 13 6 17 14 5 7 13 11 19 7 6 -3 13 -2 16 3 8 13
36 8 46 -8 5 -10 15 -3 33 23 26 39 122 126 138 126 5 0 9 4 9 8 0 5 29 52 64
106 36 53 70 111 76 130 6 19 21 38 36 44 13 7 28 20 31 29 4 10 16 27 27 38
25 24 66 103 66 128 0 9 4 17 9 17 6 0 24 29 42 65 17 35 35 62 40 59 5 -3 9
0 9 7 0 7 8 6 24 -5 18 -12 26 -12 29 -3 3 6 6 -1 7 -18 2 -30 2 -30 10 -5 l8
25 7 -22 c4 -13 11 -20 16 -18 4 3 5 13 2 22 -5 13 -3 15 13 9 10 -5 25 -9 32
-9 7 0 28 -18 47 -39 19 -21 35 -34 35 -30 0 4 -6 14 -12 22 -7 8 -4 7 8 -3
42 -35 98 -130 135 -230 l37 -102 59 -6 c69 -7 86 -13 134 -51 53 -41 73 -88
66 -159 l-6 -57 92 -55 c165 -100 312 -202 312 -217 0 -9 -11 -16 -31 -18 -24
-2 -60 15 -170 84 -76 47 -147 93 -157 102 -27 24 -28 10 -2 -54 35 -87 67
-280 66 -398 -1 -88 -5 -108 -31 -165 -28 -63 -29 -74 -33 -226 -3 -136 -7
-170 -27 -225 -31 -88 -78 -181 -134 -264 -25 -38 -46 -70 -46 -72 0 -2 16
-31 36 -65 l36 -62 77 8 c104 10 133 8 188 -16 27 -12 77 -30 113 -41 54 -17
74 -30 123 -82 l60 -61 121 -6 c66 -4 173 -9 236 -12 81 -3 132 -11 175 -26
32 -11 61 -21 62 -21 12 0 -1 55 -23 98 -16 32 -24 61 -20 75 6 27 45 71 54
62 4 -3 1 -9 -5 -13 -6 -4 -14 -23 -18 -43 -6 -31 -3 -39 16 -52 30 -22 58
-67 52 -84 -3 -7 0 -19 6 -27 6 -7 9 -20 6 -29 -4 -9 2 -21 15 -30 12 -9 19
-20 16 -25 -7 -11 16 -22 47 -22 18 0 19 -2 7 -10 -24 -15 13 -23 76 -17 30 3
54 2 54 -4 0 -5 9 -9 20 -9 36 0 16 27 -25 35 -73 13 -96 29 -143 98 -35 52
-41 84 -17 93 8 4 15 15 15 26 0 28 -56 124 -83 143 -12 9 -20 18 -17 20 15
16 -41 65 -111 98 -73 34 -82 43 -133 114 -38 55 -59 97 -71 143 -39 151 -52
180 -111 238 -31 32 -64 73 -74 92 -22 43 -75 94 -88 86 -5 -3 -12 -29 -16
-57 l-7 -52 48 -43 c37 -33 45 -45 34 -52 -10 -8 -11 -14 -1 -32 18 -34 5
-123 -25 -170 -72 -114 -235 -95 -300 34 -14 28 -25 66 -25 85 1 83 76 175
160 195 l43 11 20 73 19 72 -34 43 c-19 23 -40 52 -46 64 -15 27 -16 108 -1
134 8 15 6 25 -10 46 -41 52 -17 143 44 169 41 17 57 43 49 81 -10 49 19 102
66 120 30 12 45 26 55 50 27 64 103 70 214 16 42 -20 88 -45 103 -56 l27 -20
55 36 54 36 -5 64 c-5 55 -2 71 17 106 31 55 89 91 155 98 69 7 116 -10 159
-57 72 -80 57 -208 -32 -266 -33 -22 -128 -34 -172 -21 -19 5 -48 18 -63 29
l-28 20 -39 -26 c-22 -15 -40 -30 -40 -34 0 -4 29 -24 64 -44 83 -48 164 -123
239 -222 34 -45 81 -102 105 -128 39 -42 45 -54 52 -115 5 -37 8 -120 8 -183
0 -126 14 -226 40 -277 32 -61 117 -162 142 -169 69 -18 109 -45 142 -95 22
-35 47 -58 79 -75 28 -14 77 -56 121 -104 70 -77 132 -126 141 -112 2 4 2 2 1
-5 -2 -6 5 -22 15 -35 10 -13 36 -55 59 -93 38 -67 68 -98 192 -204 28 -24 69
-67 89 -95 36 -48 110 -190 140 -266 7 -19 19 -49 27 -67 8 -17 14 -34 14 -38
0 -4 23 -47 51 -96 28 -49 65 -128 81 -176 16 -49 38 -110 50 -137 23 -57 20
-80 -22 -170 -16 -36 -30 -69 -30 -74 0 -5 -10 -22 -22 -37 l-22 -28 519 6
c286 4 647 7 803 7 l282 0 0 2885 0 2885 -3464 0 -3464 0 5 -42 c2 -24 9 -65
14 -91 5 -26 9 -74 9 -105 0 -31 4 -63 8 -69 11 -17 -8 -164 -22 -179 -7 -6
-26 -19 -43 -28 -18 -9 -36 -22 -40 -28 -8 -13 -48 -48 -138 -123 -26 -22 -57
-50 -68 -62 -11 -13 -26 -23 -33 -23 -6 0 -31 -17 -54 -38 -39 -34 -42 -40
-31 -60 6 -12 19 -22 29 -22 11 0 13 -3 6 -8 -15 -10 -24 -100 -13 -130 5 -13
29 -44 54 -68 37 -36 45 -40 45 -23 0 11 6 22 14 25 8 3 19 18 26 34 7 16 18
31 26 34 10 4 14 23 14 66 l0 60 45 0 45 0 -6 -40 -7 -40 42 0 41 0 0 -40 c0
-33 3 -40 20 -40 17 0 20 -7 20 -45 0 -33 -5 -50 -20 -62 -11 -10 -20 -25 -20
-35 0 -10 -4 -18 -9 -18 -11 0 -27 -48 -37 -110 -3 -25 -11 -48 -16 -51 -12
-7 7 -49 22 -49 5 0 16 12 24 28 8 15 15 21 16 15 0 -25 16 -12 40 35 14 26
26 48 26 50 1 1 13 -2 28 -7 14 -6 26 -7 26 -2 0 5 9 7 20 4 15 -4 20 -14 20
-39 0 -19 5 -34 11 -34 6 0 9 -17 8 -42 -2 -29 1 -42 9 -41 14 4 15 -16 2 -37
-8 -13 -10 -13 -10 -1 0 9 -3 11 -8 5 -14 -16 -31 -77 -36 -126 l-5 -48 75 0
c41 0 74 2 74 5 0 3 -6 16 -14 28 -11 18 -12 29 -3 57 10 30 17 35 46 38 30 3
40 -3 87 -54 30 -32 54 -65 54 -74 0 -18 -60 -80 -78 -80 -7 0 -12 -5 -12 -10
0 -10 -125 -140 -134 -140 -2 0 1 16 6 35 6 19 14 32 18 30 4 -3 12 1 18 8 8
9 1 13 -29 15 -46 3 -83 -13 -75 -34 3 -8 -1 -14 -9 -14 -7 0 -17 -9 -20 -20
-4 -12 -16 -30 -28 -42 -12 -11 -17 -18 -11 -15 6 3 18 -3 27 -14 26 -30 18
-136 -11 -160 -12 -9 -22 -23 -22 -31 0 -10 -2 -10 -9 1 -6 10 -17 12 -37 6
-16 -4 -52 -9 -81 -12 -29 -3 -57 -11 -64 -19 -6 -8 -22 -14 -35 -14 -13 0
-24 -5 -24 -11 0 -6 -7 -9 -15 -5 -8 3 -15 2 -15 -2 0 -5 -16 -14 -35 -21 -19
-7 -35 -17 -35 -23 0 -7 5 -6 14 1 11 9 20 10 35 1 17 -9 19 -15 11 -30 -14
-27 -42 -40 -84 -40 -25 0 -36 -4 -36 -15 0 -8 -8 -15 -18 -15 -21 0 -50 -72
-32 -78 6 -2 10 -14 10 -26 0 -12 9 -32 21 -44 l20 -23 -33 -31 c-21 -20 -28
-33 -20 -35 6 -3 10 -8 8 -12 -6 -8 -125 -5 -134 3 -3 3 0 6 6 6 21 0 13 20
-23 57 -23 23 -31 39 -24 43 7 5 5 9 -5 13 -11 5 -16 1 -16 -13 0 -11 -7 -20
-15 -20 -8 0 -15 -4 -15 -10 0 -5 -21 -10 -46 -10 l-47 0 6 -44 c5 -32 2 -47
-8 -56 -8 -7 -15 -19 -15 -26 0 -8 -4 -14 -10 -14 -11 0 -14 31 -11 106 2 42
-1 56 -22 78 -28 30 -37 33 -37 10 0 -12 -3 -14 -13 -6 -8 7 -18 7 -27 2 -8
-5 -17 -7 -21 -4 -4 2 -12 -3 -19 -11 -7 -9 -8 -15 -2 -15 5 0 12 -18 14 -40
2 -22 -1 -40 -6 -40 -16 0 -86 -33 -86 -41 0 -4 14 -12 30 -18 41 -14 38 -21
-9 -21 -29 0 -40 5 -43 17 -3 15 -4 15 -17 0 -12 -15 -11 -17 3 -17 23 0 20
-6 -19 -45 -36 -37 -58 -46 -48 -19 3 9 -4 24 -18 37 -20 19 -21 22 -6 25 9 2
17 6 17 9 0 13 -73 73 -88 73 -21 0 -62 -42 -62 -64 0 -13 -12 -16 -60 -16
-53 0 -60 -2 -60 -20 0 -13 7 -20 20 -20 24 0 26 -25 3 -48 -12 -12 -18 -13
-21 -4 -2 6 -12 12 -23 12 -15 0 -19 7 -19 39 0 22 5 41 12 43 9 3 9 6 0 12
-7 4 -12 2 -12 -3 0 -6 -10 -11 -21 -11 -21 0 -21 3 -15 64 3 36 3 83 0 106
-6 37 -8 39 -23 26 -14 -12 -19 -11 -41 15 -19 23 -32 29 -62 29 -38 0 -38 0
-38 40 0 24 5 40 12 40 9 0 9 3 0 12 -9 9 -15 9 -24 0 -7 -7 -22 -12 -34 -12
-14 0 -24 -8 -27 -21 -3 -11 -15 -23 -26 -26 -12 -3 -21 -12 -21 -19 0 -8 -10
-14 -24 -14 -30 0 -44 -17 -18 -22 16 -3 15 -6 -10 -30 -25 -25 -28 -25 -28
-8 0 17 -7 20 -40 20 -33 0 -40 -3 -40 -20 0 -11 -6 -20 -13 -20 -7 0 -17 -10
-22 -22 -6 -13 -19 -25 -29 -26 -29 -6 -96 19 -96 35 0 8 -15 29 -33 46 -19
18 -37 39 -40 47 -3 8 -6 -2 -6 -24 -1 -33 -3 -37 -16 -26 -8 7 -15 27 -15 44
0 54 -30 68 -96 44 -18 -6 -35 -19 -38 -27 -3 -12 -6 -11 -11 6 -9 27 -35 37
-95 37 -40 -1 -41 -1 -7 3 20 2 37 9 37 15 0 7 -19 9 -52 6 -29 -3 -47 -3 -40
-1 21 8 13 20 -17 26 -16 3 -36 13 -44 22 -9 8 -32 15 -51 15 l-36 0 0 90 c0
75 -3 90 -16 90 -8 0 -22 6 -29 13 -32 28 -43 35 -63 41 -12 4 -22 12 -22 17
0 5 -7 9 -15 9 -9 0 -15 9 -15 23 0 13 -12 36 -27 50 -47 46 -62 66 -69 91 -8
31 2 36 80 37 55 1 66 4 71 20 4 10 11 19 16 19 5 0 9 18 9 40 0 29 -4 40 -15
40 -12 0 -13 4 -6 19 8 14 7 22 -4 31 -7 6 -15 24 -17 38 -3 27 -3 27 -100 30
l-97 3 -3 41 c-3 38 -6 42 -43 54 -78 26 -75 23 -75 74 0 81 33 146 43 83 3
-26 5 -24 27 25 13 28 30 52 37 52 7 0 13 5 13 10 0 6 18 10 40 10 23 0 40 -5
40 -11 0 -8 5 -7 16 2 11 9 15 26 12 61 -1 26 -1 48 2 48 3 0 14 15 25 33 10
17 23 35 29 39 8 5 7 8 -1 8 -7 0 -19 14 -28 30 -9 17 -12 30 -7 30 10 0 10
46 0 56 -4 4 9 21 29 39 25 22 32 34 24 39 -7 5 -20 1 -29 -7 -30 -27 -65 -30
-89 -8 -38 36 -18 79 65 141 37 27 72 54 79 60 7 5 15 10 19 10 3 0 34 17 68
37 33 21 92 53 130 71 38 19 76 40 83 48 12 11 14 58 11 249 l-3 235 -457 0
-458 0 0 -500z m4484 438 c12 -58 15 -103 17 -228 l2 -135 -25 -15 c-22 -12
-29 -12 -42 -1 -14 11 -16 40 -16 187 0 142 3 174 14 174 7 0 16 9 19 20 7 27
26 25 31 -2z m5614 -183 c4 -26 -21 -60 -36 -51 -13 8 -16 58 -5 70 13 13 38
1 41 -19z m-5464 -115 c13 -37 11 -80 -4 -80 -5 0 -15 -3 -24 -6 -22 -9 -38
38 -29 89 3 23 8 36 11 29 5 -16 23 -16 21 1 -3 24 3 43 8 22 2 -11 10 -36 17
-55z m3865 -87 c0 -10 -4 -27 -8 -37 -11 -28 -25 -2 -17 30 7 28 26 33 25 7z
m-4 -83 c3 -5 1 -10 -4 -10 -6 0 -11 5 -11 10 0 6 2 10 4 10 3 0 8 -4 11 -10z
m-3799 -115 c4 -8 11 -15 16 -15 19 0 47 -46 48 -78 0 -65 -56 -151 -100 -152
-9 0 -26 -7 -39 -17 -18 -12 -28 -14 -42 -5 -10 7 -19 7 -21 2 -2 -5 -9 -6
-16 -1 -10 6 -2 16 31 37 49 33 95 86 104 123 3 13 1 39 -6 56 -12 33 -7 65
10 65 5 0 12 -7 15 -15z m-280 -11 c-9 -8 -16 -26 -16 -40 0 -13 -4 -24 -9
-24 -18 0 -23 -95 -8 -132 13 -32 13 -36 -4 -46 -24 -15 -64 -1 -79 28 -13 25
-15 87 -3 115 21 50 56 95 73 95 11 0 22 5 25 10 3 6 13 10 21 10 14 0 13 -2
0 -16z m1932 -21 c-2 -9 -11 -17 -20 -19 -22 -3 -22 0 -2 20 20 20 26 20 22
-1z m-3128 -23 c0 12 3 11 11 -2 5 -10 19 -18 29 -18 17 0 20 -7 20 -40 0 -28
-4 -40 -14 -40 -8 0 -16 -7 -20 -15 -3 -8 -10 -15 -16 -15 -5 0 -10 7 -10 15
0 10 -10 15 -31 15 l-30 0 3 53 c2 42 6 52 21 51 9 -1 17 3 18 10 0 6 4 2 9
-9 6 -14 9 -15 10 -5z m5500 -29 c0 -27 7 -76 15 -108 19 -78 26 -138 14 -126
-22 22 -65 219 -55 256 11 44 26 31 26 -22z m-2459 -26 c1 -14 2 -33 3 -42 1
-22 -47 -35 -103 -27 -53 7 -81 23 -81 45 0 33 17 38 153 47 22 2 27 -2 28
-23z m-75 -202 c10 -47 11 -49 21 -24 15 38 25 11 40 -108 8 -58 16 -122 19
-142 8 -49 -16 -69 -45 -40 l-21 21 -6 -25 c-7 -28 -22 -33 -30 -10 -4 9 -19
15 -37 15 -66 0 -90 69 -41 115 23 22 27 33 26 85 0 35 4 58 10 57 6 -1 17 17
26 41 19 49 29 53 38 15z m2341 -231 c-9 -26 -17 -63 -17 -82 0 -20 -5 -41
-11 -47 -14 -14 -2 -148 15 -162 7 -6 36 -23 66 -39 61 -31 72 -54 39 -81 -22
-18 -19 -41 5 -41 8 0 21 -15 31 -32 9 -18 23 -45 31 -60 19 -35 20 -102 2
-153 -10 -30 -23 -45 -52 -60 -22 -11 -47 -28 -57 -37 -30 -28 -120 -37 -119
-11 1 11 72 43 96 43 49 0 85 61 87 148 1 57 -3 73 -26 107 -37 56 -86 104
-113 111 -12 3 -25 12 -28 20 -3 8 -11 14 -19 14 -7 0 -24 11 -37 26 -19 20
-22 27 -11 33 10 6 14 37 16 104 2 71 9 112 29 166 14 40 26 82 26 93 0 11 8
27 18 34 15 11 19 9 31 -17 13 -26 13 -35 -2 -77z m578 43 c47 -13 105 -34
128 -45 l42 -20 -45 6 c-25 4 -52 10 -62 15 -9 5 -53 20 -97 34 -45 14 -81 28
-81 30 0 10 32 4 115 -20z m-8625 -40 c0 -11 -11 -15 -40 -15 -29 0 -40 4 -40
15 0 11 11 15 40 15 29 0 40 -4 40 -15z m5557 -37 c-3 -8 -6 -5 -6 6 -1 11 2
17 5 13 3 -3 4 -12 1 -19z m-23 -5 c6 -15 -8 -32 -27 -33 -16 0 -155 -109
-174 -137 -11 -15 -39 -66 -63 -112 -39 -78 -41 -87 -32 -125 16 -64 14 -162
-3 -176 -19 -15 -75 5 -75 26 0 8 -5 14 -11 14 -5 0 -7 -5 -4 -10 9 -15 -14
-40 -36 -40 -11 0 -27 8 -36 19 -49 51 -74 86 -64 89 6 2 13 19 17 39 8 42 20
48 81 35 41 -9 51 -8 76 10 25 18 28 26 27 72 -1 28 3 68 8 88 9 35 48 99 64
106 4 2 8 9 8 16 0 29 101 102 180 129 30 11 58 7 64 -10z m436 -18 c106 -51
148 -81 173 -124 19 -32 9 -43 -13 -16 -7 8 -21 15 -31 15 -10 0 -23 9 -29 20
-6 11 -15 20 -20 20 -5 0 -32 13 -60 30 -28 16 -54 29 -58 28 -4 -1 -17 3 -29
10 -13 7 -23 9 -23 5 0 -4 -5 -2 -11 4 -31 31 42 37 101 8z m-227 -95 c8 -29
-6 -41 -41 -34 -36 7 -38 11 -17 41 17 25 51 21 58 -7z m-2353 -195 c-7 -8
-18 -15 -24 -15 -6 0 -2 7 8 15 25 19 32 19 16 0z m-3360 -50 c0 -8 9 -15 20
-15 28 0 25 -13 -9 -40 -17 -12 -32 -32 -34 -44 -2 -11 -5 9 -6 47 -1 53 2 67
14 67 8 0 15 -7 15 -15z m9584 -22 c-10 -48 -11 -83 -1 -263 7 -138 13 -215
22 -287 5 -34 -19 -103 -35 -103 -6 0 -6 9 0 25 9 25 4 55 -10 55 -4 0 -10 30
-14 68 -4 37 -11 92 -16 122 -14 87 -12 336 3 362 38 66 63 76 51 21z m-9504
-23 c0 -4 -7 -13 -15 -20 -13 -11 -15 -8 -15 13 0 19 4 25 15 21 8 -4 15 -10
15 -14z m-126 -35 c4 -10 -1 -15 -14 -15 -20 0 -26 11 -13 23 10 11 20 8 27
-8z m7291 -123 c5 -12 13 -22 17 -22 5 0 8 -5 8 -11 0 -6 7 -17 15 -26 12 -12
13 -18 4 -29 -10 -13 -15 -12 -35 7 -12 11 -25 33 -29 47 -3 15 -8 35 -12 46
-7 26 19 16 32 -12z m-966 -2 c14 -7 17 -18 14 -45 -2 -23 1 -37 9 -39 7 -1
28 -8 46 -14 17 -6 30 -6 26 -1 -3 5 0 9 5 9 6 0 11 -4 11 -9 0 -5 9 -11 20
-14 11 -3 20 0 20 6 0 7 4 18 9 26 9 13 14 12 100 -15 11 -3 10 -9 -4 -30 -14
-22 -15 -28 -4 -36 8 -4 26 -6 40 -4 32 6 49 -10 49 -46 0 -33 -33 -56 -55
-38 -11 9 -15 7 -21 -14 -3 -14 -8 -26 -10 -26 -12 0 -81 46 -92 61 -7 11 -19
19 -26 19 -7 0 -24 8 -37 18 -13 11 -37 23 -54 27 -29 8 -29 8 -6 14 l24 6
-27 13 c-33 15 -39 15 -31 2 3 -5 -11 -17 -32 -26 -30 -12 -44 -13 -67 -5 -16
6 -33 8 -39 4 -6 -3 -8 -2 -5 3 3 5 22 44 42 87 38 80 53 90 95 67z m-694 -50
c3 -11 15 -20 25 -20 10 0 28 -13 39 -29 25 -34 18 -68 -28 -135 -17 -24 -31
-57 -31 -73 -1 -21 -12 -37 -50 -67 -63 -50 -83 -90 -74 -154 5 -43 3 -52 -16
-70 -28 -26 -44 -19 -37 16 3 14 -3 39 -14 59 -10 18 -19 41 -19 49 0 10 -6
14 -14 11 -16 -6 -37 14 -60 61 -16 32 -16 33 26 110 23 42 45 79 48 82 4 3
28 37 54 75 26 39 57 78 69 87 31 24 74 23 82 -2z m-5661 -76 c11 -4 16 -19
16 -45 0 -32 -3 -39 -20 -39 -17 0 -20 7 -22 43 l-1 42 -4 -42 c-5 -54 -23
-57 -23 -4 0 45 18 59 54 45z m6037 -21 c-13 -24 -51 -55 -51 -43 0 19 32 60
47 60 10 0 11 -5 4 -17z m-1027 -19 c3 -8 2 -12 -4 -9 -6 3 -10 10 -10 16 0
14 7 11 14 -7z m2990 -32 c14 -8 -17 -22 -51 -22 -33 0 -47 23 -20 33 12 5 54
-1 71 -11z m-1834 -34 c0 -34 -126 -124 -215 -153 -55 -19 -221 -18 -239 1 -8
8 -20 14 -27 14 -20 0 3 18 26 21 11 2 42 -1 68 -5 30 -5 53 -4 61 3 7 6 44
20 82 32 71 22 128 44 154 60 23 14 74 38 83 39 4 0 7 -5 7 -12z m1886 -25 c8
-3 14 0 14 6 0 13 56 15 64 2 10 -15 -69 -38 -131 -37 -69 1 -82 8 -62 32 10
12 23 14 57 9 25 -4 51 -9 58 -12z m628 -51 c7 -12 -5 -52 -15 -52 -5 0 -9 14
-9 30 0 28 13 40 24 22z m-5834 -109 c0 -10 3 -29 7 -42 4 -16 2 -22 -4 -18
-14 9 -34 -15 -36 -42 0 -11 -5 -17 -10 -14 -5 3 -12 1 -16 -4 -3 -5 -28 -7
-54 -5 l-48 4 28 15 c15 8 36 12 46 9 17 -4 18 0 12 55 l-7 59 41 0 c32 0 41
-4 41 -17z m1168 -43 c-13 -40 -31 -50 -22 -13 6 23 20 42 31 43 1 0 -3 -14
-9 -30z m-1402 -65 c14 -13 11 -15 -26 -15 -35 0 -39 2 -28 15 17 19 36 19 54
0z m1384 -54 c-5 -11 -10 -30 -10 -43 0 -13 -6 -33 -14 -44 -14 -18 -15 -18
-12 6 2 14 8 38 15 53 6 16 11 33 11 38 0 5 5 9 10 9 7 0 7 -6 0 -19z m-2936
-126 c-4 -8 -8 -15 -10 -15 -2 0 -4 7 -4 15 0 8 4 15 10 15 5 0 7 -7 4 -15z
m156 -25 c0 -36 -2 -40 -25 -40 -22 0 -25 4 -25 40 0 36 3 40 25 40 23 0 25
-4 25 -40z m2277 -2 c-3 -8 -6 -5 -6 6 -1 11 2 17 5 13 3 -3 4 -12 1 -19z m53
20 c0 -2 -7 -23 -15 -48 -13 -37 -14 -39 -10 -11 3 18 5 40 5 47 0 8 5 14 10
14 6 0 10 -1 10 -2z m-2500 -43 c0 -8 -4 -15 -10 -15 -5 0 -7 7 -4 15 4 8 8
15 10 15 2 0 4 -7 4 -15z m2440 -27 c0 -18 -2 -20 -9 -8 -6 8 -7 18 -5 22 9
14 14 9 14 -14z m-1260 8 c0 -3 -4 -8 -10 -11 -5 -3 -10 -1 -10 4 0 6 5 11 10
11 6 0 10 -2 10 -4z m6949 -345 c-1 -182 -5 -256 -15 -292 -8 -27 -18 -49 -22
-49 -20 1 -34 19 -28 36 4 11 7 137 6 281 -1 258 0 263 21 284 22 22 23 22 30
3 5 -10 8 -129 8 -263z m-5289 173 c-30 -48 -38 -35 -9 16 13 23 25 37 27 31
2 -6 -6 -27 -18 -47z m-386 -8 c-3 -21 -8 -35 -11 -32 -2 2 -1 20 3 40 3 21 8
35 11 32 2 -2 1 -20 -3 -40z m4489 25 c4 -18 -19 -51 -36 -51 -13 0 -7 58 6
63 21 9 25 8 30 -12z m-3113 -85 c0 -5 -158 -128 -180 -141 -26 -14 -6 3 86
75 89 70 94 74 94 66z m-3537 -185 c10 -17 17 -50 17 -77 0 -86 -30 -296 -57
-402 -22 -87 -30 -105 -50 -113 -51 -19 -68 0 -111 133 -23 73 -45 124 -54
126 -9 2 -18 -15 -27 -55 -35 -151 -59 -186 -101 -148 -15 13 -16 23 -8 58 5
23 7 50 4 60 -2 10 4 40 15 65 23 52 46 138 60 222 13 78 28 110 50 110 38 0
55 -32 62 -116 8 -96 55 -250 71 -233 3 2 10 83 16 179 13 192 21 220 68 220
20 0 32 -8 45 -29z m3752 19 c-3 -5 -14 -10 -23 -9 -14 0 -13 2 3 9 27 11 27
11 20 0z m-952 -7 c-7 -2 -19 -2 -25 0 -7 3 -2 5 12 5 14 0 19 -2 13 -5z
m-113 -27 c-82 -24 -146 -54 -200 -94 l-35 -25 23 25 c43 48 198 117 262 117
14 0 -9 -10 -50 -23z m355 4 c93 -14 155 -45 177 -90 16 -32 16 -41 3 -105
-22 -106 -87 -228 -163 -304 -35 -35 -51 -56 -35 -46 26 16 27 16 11 0 -9 -10
-27 -19 -40 -20 -38 -4 -39 -5 -33 -15 3 -5 4 -10 1 -10 -2 0 -13 -3 -23 -6
-15 -5 -16 -4 -3 6 13 10 12 11 -3 6 -11 -3 -30 -9 -43 -12 -13 -3 -21 -10
-18 -15 3 -5 -10 -6 -28 -3 -26 4 -30 3 -18 -6 12 -8 7 -10 -20 -6 -19 3 -57
8 -85 11 -77 10 -121 33 -170 87 -55 62 -86 141 -92 238 -4 68 -2 80 24 130
22 43 41 62 83 88 117 70 297 97 475 72z m-2746 -55 c49 -45 66 -101 57 -188
-6 -53 -4 -66 10 -78 9 -7 27 -30 40 -50 19 -31 21 -42 13 -71 -5 -19 -18 -43
-29 -53 -15 -13 -17 -22 -10 -36 17 -31 12 -77 -9 -89 -11 -5 -46 -10 -78 -10
-71 0 -103 19 -103 60 0 24 -5 31 -26 36 -32 8 -126 70 -138 92 -15 27 -11
124 9 186 31 98 151 236 206 236 11 0 36 -16 58 -35z m-898 -15 c14 0 10 -87
-7 -165 -8 -38 -14 -99 -13 -135 2 -89 2 -87 -26 -106 -24 -16 -27 -16 -45 1
-16 15 -20 31 -20 90 0 85 -8 96 -74 98 -24 1 -39 5 -33 9 9 6 9 8 0 9 -32 4
-38 3 -38 -6 -1 -5 -6 -20 -14 -33 -14 -26 -19 -48 -25 -109 -6 -52 -12 -63
-36 -63 -40 0 -47 64 -25 220 2 14 6 49 10 78 8 64 31 94 63 86 21 -6 23 -12
21 -53 -3 -71 16 -123 35 -93 2 4 20 9 38 10 42 3 75 9 87 16 4 3 14 34 21 68
12 62 33 92 58 83 8 -3 18 -5 23 -5z m2252 -144 c-3 -4 -9 -2 -14 5 -13 22
-11 31 5 17 8 -7 12 -17 9 -22z m4931 -4 c16 -55 -35 -83 -61 -32 l-11 22 -11
-21 c-13 -24 -61 -30 -61 -7 0 23 31 48 52 43 12 -3 28 3 39 14 26 26 41 20
53 -19z m-6989 -136 c0 -36 -3 -40 -31 -48 -17 -4 -37 -15 -44 -23 -10 -13 -8
-19 12 -38 20 -18 24 -30 20 -56 -10 -67 -89 -80 -113 -19 -45 118 -43 136 18
194 33 32 41 35 87 32 l51 -3 0 -39z m-1090 -76 c3 -5 1 -10 -4 -10 -6 0 -11
5 -11 10 0 6 2 10 4 10 3 0 8 -4 11 -10z m8608 -55 c-3 -46 -19 -67 -34 -45
-28 43 -16 95 20 88 12 -3 15 -14 14 -43z m-8603 25 c0 -5 -4 -10 -10 -10 -5
0 -10 5 -10 10 0 6 5 10 10 10 6 0 10 -4 10 -10z m4620 -3 c0 -2 -17 -19 -37
-38 l-38 -34 34 38 c33 34 41 42 41 34z m-4215 -58 c-4 -5 -1 -9 4 -9 6 0 11
-7 11 -15 0 -10 -10 -15 -30 -15 -33 0 -38 14 -14 41 16 18 40 16 29 -2z
m7071 -37 c3 -15 10 -36 15 -47 11 -24 28 -102 35 -165 8 -65 -18 -94 -86 -93
-28 0 -57 6 -65 13 -22 18 -19 95 6 171 13 39 19 76 15 97 -3 18 -1 44 4 57 9
23 10 23 40 9 18 -10 32 -26 36 -42z m1284 -45 c14 -26 14 -29 -3 -42 -24 -18
-46 -9 -53 21 -14 57 27 72 56 21z m-7703 -175 c7 -4 15 -22 19 -39 5 -25 2
-34 -17 -47 -13 -9 -29 -16 -35 -16 -7 0 -41 -17 -75 -38 -57 -35 -157 -88
-452 -241 -49 -25 -107 -56 -130 -68 -49 -26 -105 -30 -113 -8 -7 16 48 68
110 104 23 13 129 70 236 128 107 58 202 111 210 117 8 7 42 28 75 46 33 18
71 41 84 51 24 20 67 25 88 11z m-2 -165 c12 -7 45 -31 75 -53 30 -23 95 -63
144 -89 167 -88 306 -192 306 -229 0 -26 -18 -46 -41 -46 -25 0 -291 163 -359
220 -20 17 -71 51 -113 76 -70 40 -77 47 -77 76 0 18 7 36 18 44 21 16 22 16
47 1z m5145 -28 c0 -30 -19 -79 -31 -79 -17 0 -19 55 -3 107 7 24 34 1 34 -28z
m2360 21 c0 -5 -4 -10 -10 -10 -5 0 -10 5 -10 10 0 6 5 10 10 10 6 0 10 -4 10
-10z m-4385 -290 c-3 -5 -11 -10 -16 -10 -6 0 -7 5 -4 10 3 6 11 10 16 10 6 0
7 -4 4 -10z m-3967 -123 c2 -15 -3 -34 -12 -42 -13 -14 -16 -12 -21 19 -4 19
-4 40 0 46 11 18 30 5 33 -23z m156 -2 c3 -9 -1 -47 -9 -86 -9 -39 -18 -92
-20 -118 -10 -85 -26 -149 -41 -162 -13 -11 -14 5 -9 137 6 163 11 220 20 235
10 15 52 10 59 -6z m-90 -511 c19 -7 19 -16 5 -68 -13 -48 -29 -32 -29 32 0
45 0 45 24 36z m-106 -56 c8 -8 12 -47 12 -111 0 -101 12 -139 57 -185 7 -7
13 -18 13 -23 0 -5 7 -9 16 -9 10 0 14 -6 11 -15 -4 -8 -2 -17 3 -20 4 -3 10
0 12 7 3 8 28 -5 69 -35 81 -59 120 -96 138 -130 11 -20 17 -24 23 -15 5 9 8
10 8 1 0 -21 -23 -27 -35 -10 -7 10 -19 17 -27 17 -8 0 -23 8 -34 18 -11 9
-35 28 -54 41 -19 14 -64 50 -100 81 -36 31 -76 63 -90 72 -31 20 -70 118 -70
178 0 47 21 150 30 150 3 0 11 -5 18 -12z"/>
<path d="M6120 5890 c0 -22 5 -40 10 -40 6 0 10 18 10 40 0 22 -4 40 -10 40
-5 0 -10 -18 -10 -40z"/>
<path d="M5608 5263 c7 -3 16 -2 19 1 4 3 -2 6 -13 5 -11 0 -14 -3 -6 -6z"/>
<path d="M3221 4684 c0 -11 3 -14 6 -6 3 7 2 16 -1 19 -3 4 -6 -2 -5 -13z"/>
<path d="M4746 3915 c-8 -8 -28 -15 -44 -15 -60 0 -162 -41 -252 -101 -86 -58
-130 -102 -116 -116 3 -4 25 3 48 15 32 16 44 18 50 9 6 -9 8 -9 8 1 0 7 5 10
10 7 6 -3 10 1 10 9 0 10 9 16 26 16 21 0 25 4 22 23 -3 22 37 65 55 59 5 -1
6 2 2 8 -5 9 1 12 21 9 4 0 10 4 13 9 9 14 55 27 47 13 -4 -6 -14 -11 -22 -11
-17 0 -18 -14 -3 -43 16 -30 45 -57 62 -57 11 0 74 37 122 72 6 4 1 18 -11 35
-36 50 -39 56 -16 42 27 -17 43 -2 18 17 -25 18 -31 18 -50 -1z"/>
<path d="M1964 3767 c-60 -64 -89 -138 -78 -196 11 -51 43 -38 77 31 27 56 49
168 37 188 -3 6 -19 -4 -36 -23z"/>
<path d="M1020 6948 c0 -64 25 -278 32 -278 5 0 7 -4 4 -9 -4 -5 -2 -21 3 -34
8 -22 15 -25 46 -23 27 3 43 12 68 41 29 34 34 36 46 21 11 -14 11 -16 -3 -16
-9 0 -16 -4 -16 -10 0 -5 18 -10 40 -10 22 0 40 5 40 10 0 18 21 10 51 -19 31
-31 36 -47 18 -53 -16 -5 22 -76 44 -82 11 -2 16 -2 13 1 -3 3 4 23 15 44 11
22 15 39 10 39 -6 0 -13 16 -17 35 -4 25 -2 39 10 50 9 9 16 22 16 29 0 11 27
22 75 31 30 6 102 47 113 65 10 17 16 18 32 10 14 -8 20 -8 20 0 0 6 17 27 37
47 27 27 38 33 41 23 3 -8 11 -23 20 -32 14 -16 13 -18 -1 -18 -24 0 -21 -6
18 -45 38 -39 45 -42 45 -20 0 11 11 15 40 15 28 0 40 -4 40 -14 0 -8 -5 -16
-12 -18 -9 -3 -9 -6 0 -12 7 -4 12 -2 12 3 0 6 7 11 15 11 11 0 15 -11 15 -40
0 -29 4 -40 15 -40 8 0 15 -9 15 -20 0 -16 7 -20 36 -20 22 0 33 4 29 10 -4 6
-15 8 -26 5 -18 -6 -19 0 -19 89 l0 96 41 0 42 0 -7 61 c-3 34 -6 70 -6 80 0
18 -21 19 -525 19 l-525 0 0 -22z"/>
<path d="M2340 6821 c0 -89 4 -152 10 -156 6 -4 10 9 10 31 0 35 1 37 15 18
14 -18 14 -17 16 16 1 19 3 27 6 18 2 -10 9 -18 15 -18 12 0 68 -55 68 -68 0
-6 5 -12 12 -14 7 -3 9 -11 4 -24 -8 -19 -8 -19 -16 1 -6 18 -8 17 -23 -12
-10 -18 -17 -48 -17 -68 0 -28 4 -35 20 -35 11 0 20 -5 20 -10 0 -6 11 -15 25
-22 13 -6 22 -14 20 -19 -3 -4 4 -5 15 -2 11 3 20 1 20 -5 0 -5 11 -13 25 -16
14 -4 25 -11 25 -16 0 -6 11 -10 25 -10 14 0 25 -4 25 -10 0 -5 5 -10 10 -10
6 0 10 23 10 50 0 38 -4 50 -15 50 -23 0 -18 9 20 46 l35 33 35 -33 c40 -38
42 -43 18 -49 -10 -2 -1 -3 20 -1 22 3 50 -2 68 -11 29 -15 32 -15 76 12 25
15 64 44 87 63 63 54 80 61 114 49 20 -7 32 -19 37 -37 6 -23 0 -32 -34 -64
-23 -20 -50 -40 -61 -43 -11 -4 -20 -11 -20 -16 0 -16 25 -10 48 11 12 11 28
20 37 20 9 0 33 16 52 37 l36 36 -8 121 c-4 67 -9 157 -11 201 -1 44 -3 86 -3
93 -1 9 -95 12 -436 12 l-435 0 0 -149z"/>
<path d="M2020 6690 c0 -29 4 -40 15 -40 11 0 15 11 15 40 0 29 -4 40 -15 40
-11 0 -15 -11 -15 -40z"/>
<path d="M2357 6635 c-4 -8 -2 -17 3 -20 6 -4 10 3 10 14 0 25 -6 27 -13 6z"/>
<path d="M2387 6580 c3 -11 7 -20 9 -20 2 0 4 9 4 20 0 11 -4 20 -9 20 -5 0
-7 -9 -4 -20z"/>
<path d="M1977 6576 c-3 -9 -15 -12 -31 -9 -15 3 -26 1 -26 -6 0 -9 21 -10 73
-2 10 1 9 31 -2 31 -5 0 -11 -6 -14 -14z"/>
<path d="M2335 6560 c4 -6 11 -8 16 -5 14 9 11 15 -7 15 -8 0 -12 -5 -9 -10z"/>
<path d="M1840 6535 c0 -8 9 -15 20 -15 11 0 20 7 20 15 0 8 -9 15 -20 15 -11
0 -20 -7 -20 -15z"/>
<path d="M2386 6521 c-4 -5 7 -19 24 -31 16 -12 30 -17 30 -11 0 6 8 11 18 12
9 0 4 5 -13 11 -16 6 -35 15 -42 20 -7 5 -14 5 -17 -1z"/>
<path d="M925 6362 c-22 -9 -46 -22 -54 -30 -8 -8 -25 -18 -39 -23 -19 -8 -23
-14 -18 -34 4 -14 2 -25 -4 -25 -5 0 -10 -4 -10 -10 0 -5 6 -7 14 -4 17 7 51
-50 40 -67 -8 -14 16 -90 27 -84 10 7 15 -3 23 -42 6 -25 4 -32 -11 -36 -10
-3 2 -5 27 -6 31 0 41 2 30 9 -12 7 -11 13 9 34 32 34 43 126 16 126 -17 0
-17 1 -2 18 10 11 20 45 23 79 6 55 5 62 -15 72 -24 13 -29 33 -6 25 8 -4 15
-1 15 5 0 14 -16 13 -65 -7z"/>
<path d="M2605 6320 c3 -5 8 -10 11 -10 2 0 4 5 4 10 0 6 -5 10 -11 10 -5 0
-7 -4 -4 -10z"/>
<path d="M710 6233 c-19 -22 -21 -43 -4 -43 8 0 14 8 14 18 0 10 5 23 12 30 7
7 8 12 3 12 -6 -1 -17 -8 -25 -17z"/>
<path d="M0 5900 c0 -49 0 -49 25 -38 13 6 27 19 30 29 8 26 -12 59 -35 59
-17 0 -20 -7 -20 -50z"/>
<path d="M320 5574 c0 -8 6 -22 14 -30 17 -16 46 -19 46 -4 0 6 -9 10 -20 10
-13 0 -20 7 -20 20 0 11 -4 20 -10 20 -5 0 -10 -7 -10 -16z"/>
<path d="M2963 5552 c-13 -2 -23 -9 -23 -16 0 -7 -11 -23 -25 -36 l-26 -24 23
-13 23 -12 -22 -1 c-31 0 -29 -13 7 -40 21 -16 29 -29 24 -42 -7 -25 5 -65 16
-48 6 9 10 7 15 -9 7 -25 40 -28 49 -5 3 9 6 28 6 42 0 21 2 24 10 12 9 -13
12 -13 24 3 8 10 16 13 17 8 3 -6 10 -7 18 -1 12 6 6 13 -22 26 -23 11 -37 25
-37 36 0 11 -7 18 -20 18 -24 0 -16 27 11 35 10 4 26 13 34 21 31 31 -31 59
-102 46z m37 -6 c0 -3 -4 -8 -10 -11 -5 -3 -10 -1 -10 4 0 6 5 11 10 11 6 0
10 -2 10 -4z"/>
<path d="M480 5439 c0 -5 5 -7 10 -4 6 3 10 8 10 11 0 2 -4 4 -10 4 -5 0 -10
-5 -10 -11z"/>
<path d="M3180 5360 c0 -5 5 -10 10 -10 6 0 10 5 10 10 0 6 -4 10 -10 10 -5 0
-10 -4 -10 -10z"/>
<path d="M3210 5360 c0 -5 6 -10 14 -10 8 0 18 5 21 10 3 6 -3 10 -14 10 -12
0 -21 -4 -21 -10z"/>
<path d="M3040 5327 c0 -8 7 -14 15 -14 8 0 15 4 15 9 0 5 6 6 13 2 6 -4 9 -3
4 1 -13 15 -47 16 -47 2z"/>
<path d="M3200 5320 c0 -5 7 -10 15 -10 8 0 15 5 15 10 0 6 -7 10 -15 10 -8 0
-15 -4 -15 -10z"/>
<path d="M1587 5100 c-18 -18 -18 -19 2 -30 16 -8 30 -8 56 1 19 7 35 16 35
19 0 5 -61 31 -71 29 -2 0 -12 -9 -22 -19z"/>
<path d="M3390 5100 c-6 -11 -8 -20 -6 -20 3 0 10 9 16 20 6 11 8 20 6 20 -3
0 -10 -9 -16 -20z"/>
<path d="M3200 5063 c0 -7 11 -13 25 -13 23 0 25 -4 25 -41 l0 -41 65 4 c35 2
61 1 57 -2 -4 -3 -8 -18 -9 -35 -1 -16 1 -22 3 -12 3 9 10 17 15 17 13 0 11
-24 -3 -38 -9 -9 -9 -12 -1 -12 17 0 22 30 13 80 -4 25 -8 39 -9 33 0 -7 -5
-13 -11 -13 -5 0 -10 18 -10 39 l0 39 -80 4 c-59 2 -80 0 -80 -9z"/>
<path d="M3160 5005 c0 -28 4 -35 20 -35 16 0 20 7 20 35 0 28 -4 35 -20 35
-16 0 -20 -7 -20 -35z"/>
<path d="M1114 4722 c-41 -28 -29 -72 20 -72 24 0 26 4 26 40 0 31 -4 40 -17
40 -10 0 -23 -4 -29 -8z"/>
<path d="M1955 4610 c-3 -5 5 -15 19 -22 22 -9 26 -18 26 -55 0 -32 -4 -43
-15 -43 -19 0 -19 -14 -1 -29 19 -16 45 -3 52 26 7 25 -1 107 -12 124 -7 12
-61 12 -69 -1z"/>
<path d="M1440 4570 c0 -17 7 -20 40 -20 22 0 40 5 40 10 0 6 -13 10 -30 10
-16 0 -30 5 -30 10 0 6 -4 10 -10 10 -5 0 -10 -9 -10 -20z"/>
<path d="M2299 4504 c-9 -12 -5 -14 25 -14 38 0 42 14 7 23 -11 3 -25 -1 -32
-9z"/>
<path d="M1985 4400 c3 -5 8 -10 11 -10 2 0 4 5 4 10 0 6 -5 10 -11 10 -5 0
-7 -4 -4 -10z"/>
<path d="M5383 4383 c4 -3 1 -13 -6 -22 -11 -14 -10 -14 5 -2 16 12 16 31 1
31 -4 0 -3 -3 0 -7z"/>
<path d="M5275 4327 c-31 -15 -55 -51 -44 -68 7 -12 11 -12 31 0 13 8 35 21
51 29 25 13 38 42 18 42 -5 0 -15 2 -23 4 -7 2 -22 -1 -33 -7z"/>
<path d="M5200 4240 c0 -5 5 -10 10 -10 6 0 10 5 10 10 0 6 -4 10 -10 10 -5 0
-10 -4 -10 -10z"/>
<path d="M5162 4145 c-7 -8 -9 -15 -4 -15 5 0 15 7 22 15 16 19 -1 19 -18 0z"/>
<path d="M5170 4120 c-8 -5 -12 -12 -9 -15 4 -3 12 1 19 10 14 17 11 19 -10 5z"/>
<path d="M6441 4018 c-12 -20 -11 -24 13 -45 33 -28 56 -29 86 -5 l23 18 -46
27 c-55 33 -59 33 -76 5z"/>
<path d="M5290 3958 c0 -10 5 -18 10 -18 6 0 10 -7 10 -15 0 -8 7 -15 15 -15
8 0 15 4 15 8 0 12 -29 49 -30 37 0 -5 -5 -3 -10 5 -8 13 -10 12 -10 -2z"/>
<path d="M5486 3948 c5 -8 2 -9 -9 -5 -10 3 -17 2 -17 -3 0 -6 -11 -10 -24
-10 -23 0 -24 -3 -17 -39 1 -2 8 2 16 9 8 6 18 9 22 7 5 -3 24 1 43 10 33 14
34 15 16 29 -24 17 -40 18 -30 2z"/>
<path d="M5368 3927 c7 -8 9 -17 5 -20 -3 -4 -1 -7 5 -7 18 0 14 27 -4 34 -13
5 -14 4 -6 -7z"/>
<path d="M2730 3909 c-82 -47 -114 -145 -68 -204 19 -25 26 -27 75 -23 92 8
191 98 165 151 -6 12 -13 34 -16 48 -11 49 -94 64 -156 28z"/>
<path d="M5247 3863 c-3 -5 4 -15 16 -23 21 -12 21 -12 7 6 -8 10 -15 20 -16
22 -1 2 -4 -1 -7 -5z"/>
<path d="M6856 3701 c-8 -12 4 -70 15 -77 5 -3 9 -18 9 -34 0 -36 95 -132 140
-141 42 -9 38 7 -16 69 -36 42 -45 58 -41 79 4 20 -4 35 -35 69 -40 43 -61 53
-72 35z"/>
<path d="M5297 3486 c-26 -24 -28 -55 -3 -57 49 -5 78 14 74 50 -4 35 -37 39
-71 7z"/>
<path d="M5110 3440 c-23 -23 -27 -60 -5 -60 8 0 30 14 50 32 27 23 33 33 23
39 -22 14 -47 10 -68 -11z"/>
<path d="M7100 3421 c0 -11 25 -21 53 -21 22 1 22 1 3 15 -22 17 -56 20 -56 6z"/>
<path d="M3820 3381 c-116 -31 -129 -50 -72 -107 l27 -26 8 38 c9 46 28 61 89
69 55 8 67 19 39 34 -11 6 -21 11 -23 10 -2 0 -32 -8 -68 -18z"/>
<path d="M3912 3345 c-11 -13 -32 -59 -32 -71 0 -6 49 -5 93 2 46 8 50 34 8
63 -34 24 -51 26 -69 6z"/>
<path d="M5419 3209 c-12 -8 -11 -12 3 -22 15 -12 13 -14 -15 -25 -21 -8 -33
-9 -35 -2 -2 6 -11 2 -20 -9 -23 -26 -77 -42 -106 -32 -32 13 -110 -16 -171
-63 -53 -41 -69 -60 -63 -78 3 -7 10 -5 20 6 9 9 28 16 41 16 14 0 27 6 30 13
10 27 103 67 164 70 33 2 65 7 70 10 5 3 25 9 43 12 18 3 42 12 54 20 25 18
57 20 54 3 -3 -13 9 -13 70 -2 62 12 51 58 -16 67 -20 3 -53 9 -73 15 -22 5
-42 6 -50 1z"/>
<path d="M5330 3164 c0 -8 5 -12 10 -9 6 3 10 10 10 16 0 5 -4 9 -10 9 -5 0
-10 -7 -10 -16z"/>
<path d="M7540 3073 c0 -4 7 -26 16 -50 16 -41 16 -43 -10 -87 -21 -36 -39
-51 -90 -75 -75 -35 -87 -57 -57 -100 12 -16 21 -33 21 -39 0 -10 36 -105 50
-132 4 -9 11 -30 15 -49 4 -18 13 -35 21 -38 8 -3 14 -11 14 -19 0 -8 3 -14 8
-14 12 1 44 28 61 54 60 91 111 157 148 193 60 60 59 90 -6 140 -27 21 -54 47
-59 58 -5 11 -21 45 -36 75 -15 34 -37 62 -55 73 -32 19 -41 21 -41 10z"/>
<path d="M5696 2824 c-3 -9 -6 -29 -6 -46 0 -35 -43 -116 -74 -137 -11 -8 -28
-23 -39 -34 -11 -11 -22 -15 -26 -11 -8 12 -41 14 -41 3 0 -5 -7 -9 -15 -9 -8
0 -15 -5 -15 -11 0 -6 -9 -8 -21 -4 -16 5 -20 4 -15 -6 4 -8 1 -6 -7 4 -10 12
-17 15 -22 7 -4 -6 0 -19 8 -28 8 -9 20 -34 27 -54 6 -21 15 -38 18 -38 20 0
201 39 225 49 15 6 28 16 28 23 1 7 3 20 4 28 2 28 18 75 28 87 5 7 7 22 4 32
-3 11 0 22 7 25 7 3 6 8 -4 16 -11 9 -12 13 -3 17 10 4 10 9 1 26 -7 12 -13
24 -13 27 -2 14 -27 50 -34 50 -5 0 -12 -7 -15 -16z"/>
<path d="M7797 2736 c-3 -8 1 -20 9 -26 11 -10 14 -9 14 8 0 25 -16 37 -23 18z"/>
<path d="M7753 2696 c-13 -6 -23 -18 -23 -27 0 -9 -10 -19 -21 -22 -17 -5 -20
-11 -15 -30 4 -19 1 -26 -13 -30 -28 -7 -22 -64 14 -114 32 -45 65 -57 65 -24
0 11 5 23 10 26 6 3 10 17 10 29 0 16 7 26 22 29 18 5 19 8 8 21 -7 9 -9 16
-5 16 5 0 0 9 -10 20 -10 11 -13 20 -7 20 6 0 14 -4 17 -10 3 -5 15 -10 26
-10 18 0 17 5 -13 60 -18 33 -35 59 -38 59 -3 -1 -15 -6 -27 -13z m2 -146 c3
-5 1 -10 -4 -10 -6 0 -11 5 -11 10 0 6 2 10 4 10 3 0 8 -4 11 -10z"/>
<path d="M3938 2418 c-2 -51 -1 -154 2 -228 5 -120 8 -139 27 -164 l22 -28 7
26 c3 14 3 33 0 43 -8 20 3 105 13 98 4 -2 6 9 3 24 -2 16 1 38 7 49 8 14 8
21 0 24 -13 4 -17 129 -5 187 8 40 7 44 -8 38 -10 -4 -19 -1 -22 8 -4 8 -14
15 -25 15 -16 0 -19 -10 -21 -92z"/>
<path d="M6463 2486 c1 -5 -7 -12 -18 -14 -11 -2 -24 -11 -28 -19 -7 -11 -12
-12 -23 -2 -11 9 -14 9 -14 -1 0 -8 -3 -10 -6 -7 -4 4 -15 -3 -25 -15 -11 -11
-19 -17 -19 -12 0 5 -13 -14 -30 -42 -16 -29 -47 -67 -70 -86 -22 -19 -40 -40
-40 -46 0 -7 -5 -12 -11 -12 -6 0 -9 -6 -6 -14 3 -8 -5 -26 -19 -41 -16 -17
-24 -38 -24 -61 0 -18 -4 -34 -10 -34 -5 0 -10 -15 -10 -34 0 -19 -7 -41 -15
-50 -8 -8 -15 -24 -15 -35 0 -12 -4 -21 -10 -21 -5 0 -10 -15 -10 -33 0 -23
-5 -34 -15 -34 -12 0 -12 3 -3 16 7 9 1 6 -13 -7 -14 -12 -29 -19 -32 -15 -4
3 -7 1 -7 -5 0 -26 -46 -11 -72 22 -33 42 -35 52 -8 59 12 3 20 14 20 27 0 11
4 19 9 16 8 -5 71 239 71 274 0 27 -22 40 -67 40 -36 0 -43 -3 -43 -19 0 -11
-4 -22 -9 -25 -5 -3 -12 -22 -15 -41 -4 -19 -12 -35 -18 -35 -5 0 -8 -7 -4
-15 3 -9 -3 -24 -12 -33 -10 -10 -16 -24 -14 -30 2 -7 -3 -23 -10 -35 -8 -12
-18 -34 -22 -49 -3 -16 -12 -28 -19 -28 -7 0 -12 -14 -13 -31 -1 -17 -6 -34
-11 -38 -6 -3 -14 -21 -18 -38 -3 -18 -11 -33 -16 -33 -5 0 -9 -6 -9 -14 0 -7
-8 -24 -18 -37 -11 -13 -22 -37 -26 -52 -4 -15 -11 -25 -16 -22 -6 3 -10 -5
-10 -20 0 -14 -7 -28 -15 -31 -8 -4 -15 -11 -15 -18 0 -13 -44 -66 -54 -66
-13 0 -36 28 -36 44 0 9 -4 16 -10 16 -5 0 -10 6 -10 14 0 8 -6 17 -12 20 -7
3 -2 3 11 0 18 -5 22 -3 15 7 -12 20 -14 39 -3 39 6 0 7 5 4 10 -10 16 -23 12
-21 -6 4 -23 -40 -64 -69 -64 -38 0 -57 10 -45 25 6 7 9 19 8 26 -2 8 3 13 10
12 6 -2 13 3 14 10 0 6 2 17 2 23 1 6 9 19 19 28 20 20 22 32 5 42 -7 5 -8 3
-3 -7 7 -11 6 -11 -9 1 -29 23 -48 22 -35 -2 7 -14 7 -23 -1 -33 -7 -8 -9 -20
-5 -27 4 -7 0 -4 -9 6 -14 18 -15 17 -12 -18 2 -20 6 -39 10 -43 3 -3 1 -12
-5 -20 -6 -7 -8 -13 -4 -13 5 0 0 -9 -10 -20 -25 -28 -59 -25 -84 8 -14 18
-23 23 -28 16 -5 -7 -22 -20 -39 -30 -55 -34 -113 -81 -107 -88 3 -3 1 -6 -6
-6 -8 0 -11 -7 -7 -15 3 -9 0 -15 -10 -15 -8 0 -13 4 -10 9 7 11 -22 36 -31
27 -3 -3 0 -6 7 -6 9 0 5 -9 -10 -25 -19 -20 -21 -27 -11 -39 10 -12 9 -15 -7
-13 -13 1 -18 6 -14 15 4 11 -2 11 -27 -2 -17 -9 -31 -21 -31 -27 0 -6 -6 -7
-12 -3 -25 16 -48 11 -50 -10 0 -12 -2 -26 -2 -32 -3 -24 -56 -56 -56 -34 0 5
5 10 10 10 6 0 9 3 9 8 -3 18 2 32 17 46 8 9 11 16 5 16 -6 0 -11 7 -11 16 0
8 5 12 10 9 6 -3 10 0 10 9 0 8 3 16 8 19 4 2 0 2 -8 0 -22 -6 -22 -6 -57 2
-18 4 -33 11 -33 16 0 5 -9 9 -20 9 -11 0 -20 6 -20 13 0 9 -12 13 -36 12 -25
-2 -32 1 -25 8 17 17 13 23 -14 22 -13 -1 -34 -10 -46 -21 -12 -10 -23 -17
-24 -14 -2 3 -7 2 -11 -2 -4 -5 1 -8 12 -8 16 0 16 -2 4 -10 -9 -6 -18 -6 -24
0 -6 6 2 23 24 45 18 19 30 38 27 42 -4 4 -13 1 -19 -5 -9 -9 -17 -8 -32 6
-17 14 -18 14 -8 1 10 -14 10 -18 -3 -23 -9 -3 -13 -11 -9 -18 5 -7 1 -9 -14
-6 -16 4 -19 2 -15 -10 5 -11 3 -13 -7 -7 -10 6 -12 4 -7 -8 4 -11 2 -14 -8
-10 -8 3 -13 9 -10 13 3 5 2 15 -1 24 -5 12 -10 14 -19 6 -6 -5 -16 -6 -21 -2
-4 4 -2 -1 6 -11 12 -17 12 -17 -13 -6 -31 14 -44 44 -27 64 8 10 9 15 2 15
-6 0 -14 -10 -18 -22 -6 -19 -7 -19 -16 -5 -5 10 -14 17 -21 17 -6 0 8 -19 31
-43 23 -24 39 -47 35 -51 -4 -4 0 -4 10 0 12 4 17 1 17 -12 0 -16 2 -17 10 -4
8 13 10 13 10 -1 0 -9 -7 -19 -15 -23 -8 -3 -14 -2 -12 2 1 4 -2 7 -8 7 -5 0
-8 -4 -7 -10 2 -5 0 -7 -4 -3 -4 4 -13 3 -21 -3 -8 -7 -13 -8 -13 -1 0 5 7 13
16 16 19 7 9 26 -14 26 -13 0 -14 -2 -3 -9 10 -6 10 -10 1 -13 -6 -2 -13 -15
-13 -30 -1 -14 -5 -24 -9 -21 -5 2 -8 -3 -8 -11 0 -8 -8 -16 -17 -18 -10 -2
20 -7 67 -11 105 -9 265 -41 330 -66 27 -10 50 -15 52 -10 2 5 25 11 53 15 27
3 53 8 58 11 5 3 54 7 108 10 l98 3 21 -47 c48 -110 139 -161 261 -147 55 6
59 8 59 32 0 39 26 63 57 51 33 -12 38 -8 62 57 27 71 26 88 -3 102 -13 6 -27
20 -31 31 -7 23 21 85 35 76 6 -4 10 -2 10 4 0 15 78 33 112 26 27 -6 30 -10
25 -39 -6 -40 13 -76 57 -110 63 -48 116 -64 238 -71 l113 -7 2 37 c1 22 -4
44 -13 52 -18 19 -18 47 2 63 24 21 35 47 40 101 5 48 4 50 -15 40 -39 -21
-67 11 -50 57 10 26 22 28 44 5 16 -15 16 -12 10 50 -5 49 -4 67 4 67 7 0 10
4 7 9 -7 11 16 117 51 231 29 95 82 174 197 294 36 38 66 76 67 85 0 9 2 23 4
32 1 9 -3 16 -11 16 -7 0 -12 -5 -11 -11z m-592 -483 c-8 -15 -10 -15 -11 -2
0 17 10 32 18 25 2 -3 -1 -13 -7 -23z m-32 -37 c-7 -14 -16 -26 -20 -26 -5 0
0 13 9 29 20 36 27 34 11 -3z m-29 -62 c0 -9 -5 -12 -12 -8 -8 5 -9 2 -5 -10
5 -14 3 -17 -8 -12 -8 3 -15 0 -15 -6 0 -6 -3 -8 -7 -5 -3 4 4 18 17 32 28 29
30 30 30 9z m74 -130 c23 -9 21 -61 -3 -74 -28 -14 -91 -13 -92 3 -5 52 46 90
95 71z m-566 -201 c32 -28 36 -59 12 -83 -18 -18 -29 -20 -63 -15 -39 6 -67
26 -67 48 0 16 61 67 80 67 10 0 27 -8 38 -17z m-274 -48 c-4 -8 -11 -15 -16
-15 -6 0 -5 6 2 15 7 8 14 15 16 15 2 0 1 -7 -2 -15z m71 -57 c-4 -24 -9 -45
-11 -47 -1 -2 -16 1 -33 7 -16 6 -38 8 -49 5 -41 -10 -32 18 11 36 25 11 48
24 51 30 4 6 14 11 22 11 13 0 14 -8 9 -42z"/>
<path d="M6589 2460 c-20 -16 -39 -26 -43 -22 -4 3 -4 -1 -1 -10 4 -11 -11
-30 -52 -64 -92 -78 -96 -82 -88 -95 5 -7 4 -10 -3 -5 -16 9 -75 -47 -77 -73
-1 -11 2 -21 6 -21 4 0 43 35 86 78 43 42 95 89 115 104 38 28 101 114 96 129
-2 5 -19 -4 -39 -21z m-204 -220 c-3 -5 -12 -10 -18 -10 -7 0 -6 4 3 10 19 12
23 12 15 0z"/>
<path d="M7630 2482 c0 -4 7 -18 16 -30 9 -13 13 -30 10 -39 -4 -11 -2 -14 9
-9 16 6 21 -9 6 -19 -8 -5 -24 10 -27 25 -5 27 -20 40 -45 40 -21 0 -29 -5
-29 -17 0 -10 -14 -26 -30 -35 -17 -9 -30 -24 -30 -33 0 -9 -9 -15 -25 -15
-30 0 -33 -20 -5 -45 11 -10 20 -24 20 -32 0 -8 4 -12 9 -8 5 3 12 1 16 -5 14
-22 26 -9 20 21 -7 29 -6 30 14 19 12 -6 19 -15 16 -21 -4 -5 3 -9 14 -9 11 0
24 6 28 13 4 6 20 18 36 26 15 8 30 25 33 37 3 12 15 24 26 27 24 7 16 23 -36
80 -34 36 -46 44 -46 29z"/>
<path d="M7970 2473 c0 -5 7 -18 15 -29 12 -16 14 -16 15 -3 0 9 -7 22 -15 29
-8 7 -15 8 -15 3z"/>
<path d="M4077 2413 c-10 -35 -7 -116 4 -129 6 -8 8 -21 5 -30 -5 -14 -4 -15
9 -4 12 10 13 16 4 27 -7 7 -11 44 -11 83 1 70 -3 85 -11 53z"/>
<path d="M6870 2419 c0 -5 -9 -9 -20 -9 -11 0 -20 -5 -20 -11 0 -6 -7 -9 -15
-5 -8 3 -14 1 -12 -5 1 -6 -23 -20 -53 -31 -30 -12 -56 -24 -58 -28 -1 -4 -18
-25 -37 -46 -19 -21 -35 -44 -35 -51 0 -7 -7 -10 -15 -7 -14 6 -19 -5 -16 -33
3 -18 -10 -16 -25 5 -11 16 -13 15 -23 -10 -6 -16 -15 -28 -21 -28 -5 0 -10
-9 -10 -21 0 -11 4 -18 9 -15 5 4 11 1 13 -6 3 -8 15 -5 39 10 64 41 109 93
109 126 0 40 74 94 183 132 51 18 59 29 27 37 -11 3 -20 1 -20 -4z"/>
<path d="M7227 2409 c7 -7 15 -10 18 -7 3 3 -2 9 -12 12 -14 6 -15 5 -6 -5z"/>
<path d="M7966 2402 c-3 -6 -1 -14 5 -17 14 -9 20 -2 10 14 -6 8 -11 9 -15 3z"/>
<path d="M5710 2385 c0 -9 5 -15 11 -13 6 2 11 8 11 13 0 5 -5 11 -11 13 -6 2
-11 -4 -11 -13z"/>
<path d="M3249 2364 c13 -27 11 -84 -3 -84 -7 0 -7 -3 -1 -8 6 -4 11 -12 12
-18 1 -6 4 -23 7 -38 5 -26 -9 -46 -16 -24 -3 7 -7 5 -11 -6 -4 -9 -3 -15 1
-12 4 2 14 0 22 -5 13 -8 12 -12 -4 -24 -11 -8 -15 -15 -10 -15 6 0 11 -7 11
-15 0 -13 -16 -20 -39 -16 -20 3 -4 -12 26 -24 43 -18 66 -11 58 17 -3 11 1
24 9 29 11 7 9 9 -6 9 -15 0 -17 3 -7 9 15 9 15 20 1 37 -8 10 -10 74 -2 74
19 0 73 -32 68 -40 -3 -5 -1 -10 6 -10 6 0 22 -11 35 -25 13 -14 27 -25 32
-25 30 0 62 -77 38 -92 -6 -4 2 -8 17 -8 25 0 28 3 22 23 -13 46 -28 77 -36
77 -5 0 -14 12 -19 26 -7 19 -15 24 -28 20 -15 -5 -15 -5 -2 6 16 13 16 48 0
48 -5 0 -7 6 -5 13 3 6 -9 20 -26 30 -31 17 -31 17 -26 -5 4 -13 1 -30 -4 -38
-9 -13 -10 -12 -5 3 3 9 0 17 -6 17 -7 0 -36 26 -66 58 -29 31 -49 48 -43 36z
m161 -133 c5 7 12 10 16 6 11 -10 -12 -31 -25 -23 -6 4 -10 15 -10 24 1 14 2
14 6 -2 4 -15 7 -16 13 -5z m-136 -150 c4 -5 -3 -7 -14 -4 -23 6 -26 13 -6 13
8 0 17 -4 20 -9z"/>
<path d="M5543 2367 c-53 -15 -64 -26 -70 -73 -3 -22 -10 -45 -15 -51 -31 -38
44 8 92 57 3 3 13 11 23 19 16 13 16 10 -3 -27 -12 -23 -32 -50 -44 -60 -11
-9 -23 -28 -25 -42 -1 -14 -11 -36 -21 -50 -19 -26 -22 -60 -7 -71 14 -10 54
37 90 103 35 66 61 82 71 42 8 -29 -1 -47 -18 -41 -8 3 -12 -7 -12 -31 1 -30
-3 -37 -18 -37 -11 0 -20 -8 -22 -18 -5 -35 -14 -49 -28 -44 -17 7 -27 -34
-14 -56 11 -21 -7 -31 -22 -12 -14 17 -34 10 -23 -8 13 -21 12 -35 -4 -41 -7
-3 -12 -2 -9 2 3 5 -1 9 -10 9 -10 0 -12 -7 -8 -21 17 -53 17 -52 6 -37 -12
16 -42 24 -42 11 0 -15 18 -21 24 -8 3 7 3 3 0 -10 -4 -15 0 -24 11 -28 18 -7
26 -2 29 18 1 8 11 25 23 38 12 12 20 27 17 32 -3 4 2 8 10 8 8 0 18 10 21 22
4 11 18 31 31 43 13 12 24 27 24 32 0 6 6 16 14 22 8 7 18 26 21 42 4 16 10
29 15 29 4 0 10 10 13 23 3 12 14 47 26 77 25 66 25 61 4 53 -11 -4 -14 -3 -9
5 4 7 2 13 -3 13 -6 1 -16 2 -23 3 -15 1 -23 26 -8 26 6 0 8 5 5 10 -3 6 0 10
8 10 7 0 19 -12 25 -26 7 -14 17 -22 22 -19 16 10 12 45 -5 45 -8 0 -15 7 -15
15 0 18 -82 19 -147 2z m121 -100 c15 -24 -8 -38 -39 -23 -19 8 -21 14 -13 29
11 22 37 19 52 -6z"/>
<path d="M5774 2365 c3 -8 -1 -21 -9 -29 -8 -8 -15 -26 -15 -40 0 -14 -5 -28
-10 -31 -6 -4 -8 -15 -5 -25 3 -10 -1 -25 -10 -33 -8 -9 -12 -22 -9 -30 3 -8
-2 -21 -10 -30 -9 -9 -16 -27 -16 -42 0 -14 -7 -28 -15 -31 -8 -4 -15 -17 -15
-31 0 -16 -7 -27 -19 -30 -11 -3 -17 -11 -15 -18 7 -19 -15 -57 -28 -49 -6 4
-8 -1 -4 -14 5 -15 1 -25 -13 -34 -16 -9 -17 -16 -9 -31 7 -14 7 -17 -1 -13
-6 4 -11 2 -11 -3 0 -6 -7 -11 -15 -11 -19 0 -10 -22 16 -38 14 -9 24 -10 37
-2 16 10 15 10 -2 8 -12 -2 -20 4 -22 15 -2 13 1 15 9 8 15 -12 53 17 52 39
-1 8 4 22 10 30 20 25 55 100 55 115 0 8 4 15 10 15 5 0 13 12 16 28 4 15 11
32 15 38 5 6 10 19 12 30 2 10 9 30 15 44 12 29 24 60 28 75 1 6 9 26 18 47
15 34 14 37 -5 62 -22 28 -45 35 -35 11z"/>
<path d="M7900 2350 c0 -16 33 -80 42 -80 11 0 11 0 -12 48 -20 41 -30 52 -30
32z"/>
<path d="M6979 2336 c-2 -2 -20 -6 -39 -8 -19 -2 -53 -12 -75 -22 l-40 -19 31
-9 c24 -8 39 -6 65 6 43 21 74 44 67 51 -2 3 -7 3 -9 1z"/>
<path d="M7850 2285 c0 -27 -4 -35 -18 -35 -9 0 -22 -10 -27 -22 -6 -13 -20
-24 -32 -26 -20 -3 -28 -17 -25 -43 1 -3 -12 -6 -28 -7 -16 0 -38 -10 -50 -22
-11 -11 -32 -25 -46 -30 -14 -6 -23 -14 -20 -19 11 -17 -27 -21 -46 -5 -27 25
-34 9 -15 -31 18 -39 42 -46 50 -15 3 11 11 20 19 20 10 0 9 -3 -2 -10 -12 -8
-10 -10 11 -10 51 0 244 109 253 143 2 10 14 21 25 24 32 8 28 62 -7 96 -37
35 -42 34 -42 -8z"/>
<path d="M7435 2284 c15 -14 34 -24 43 -22 14 3 13 7 -6 26 -12 12 -32 22 -43
22 -21 0 -21 -1 6 -26z"/>
<path d="M8130 2291 c0 -5 7 -14 15 -21 16 -14 18 -10 9 14 -6 17 -24 22 -24
7z"/>
<path d="M4366 2258 c3 -5 10 -6 15 -3 13 9 11 12 -6 12 -8 0 -12 -4 -9 -9z"/>
<path d="M8090 2255 c0 -15 90 -118 97 -111 6 5 -46 85 -69 109 -21 21 -28 22
-28 2z"/>
<path d="M7032 2244 c-15 -10 -22 -11 -22 -3 0 7 -9 2 -19 -10 -11 -13 -24
-20 -30 -17 -5 4 -13 1 -17 -5 -4 -8 -9 -7 -15 2 -6 10 -9 7 -9 -10 0 -24 0
-24 -16 -5 -15 18 -15 18 -8 -5 4 -16 3 -21 -5 -17 -6 4 -17 4 -23 -1 -13 -8
-19 -9 -39 -12 -6 0 -9 -7 -6 -14 3 -8 -3 -14 -15 -14 -11 -1 -31 -13 -45 -27
-14 -14 -32 -26 -40 -26 -8 0 -11 -4 -8 -10 3 -5 1 -10 -5 -10 -6 0 -8 -6 -4
-12 4 -7 -3 -4 -17 7 -18 15 -20 16 -10 3 10 -14 10 -18 1 -18 -8 0 -10 -8 -7
-21 3 -12 0 -22 -9 -26 -9 -3 -13 -12 -9 -21 5 -13 3 -13 -11 -1 -9 7 -12 15
-6 17 6 2 8 11 5 20 -6 15 -5 16 12 2 11 -9 16 -10 11 -3 -4 7 -15 17 -24 22
-14 8 -17 4 -17 -22 0 -18 4 -38 8 -44 5 -7 4 -19 0 -27 -7 -12 -10 -11 -23 2
-13 14 -12 15 3 9 9 -3 17 -3 17 2 0 5 -9 11 -19 14 -15 4 -18 0 -16 -20 3
-27 -17 -41 -38 -27 -7 5 -6 2 3 -6 13 -13 16 -35 11 -82 -1 -4 -8 -14 -17
-23 -14 -13 -14 -18 -2 -33 11 -15 11 -16 -3 -5 -24 19 -31 3 -8 -16 13 -10
18 -22 14 -34 -8 -18 -25 -24 -25 -7 0 6 4 10 10 10 5 0 7 7 3 17 -5 14 -8 13
-15 -7 -5 -14 -4 -28 3 -36 9 -11 9 -14 0 -14 -8 0 -9 -5 -1 -19 7 -14 7 -22
-2 -27 -6 -4 -8 -3 -4 4 3 6 2 13 -3 17 -12 7 -4 -40 11 -69 9 -18 9 -19 -3
-9 -12 9 -14 4 -14 -30 0 -23 4 -45 10 -49 7 -6 6 -10 -1 -15 -6 -5 -10 -18
-9 -30 1 -14 -3 -19 -12 -16 -9 4 -11 0 -7 -13 4 -11 4 -16 0 -13 -4 4 -9 19
-12 35 -3 16 -11 41 -18 56 -10 20 -11 30 -2 40 6 7 7 9 2 5 -14 -11 -36 45
-23 61 6 8 6 12 -3 12 -7 0 -10 6 -7 14 3 8 1 16 -5 18 -8 3 -7 10 1 26 10 19
8 25 -15 47 -15 14 -23 25 -18 25 5 0 2 5 -6 10 -8 5 -19 10 -25 10 -5 0 -4
-4 3 -9 10 -6 8 -10 -8 -14 -17 -4 -20 -2 -15 11 4 12 3 14 -5 6 -6 -6 -8 -18
-4 -28 5 -13 9 -14 20 -5 11 9 14 9 14 0 0 -6 -12 -16 -26 -21 -14 -6 -22 -14
-19 -20 3 -5 8 -10 11 -10 3 0 2 5 -1 10 -3 6 1 10 11 10 14 0 14 -3 4 -15 -8
-10 -21 -13 -34 -9 -21 6 -21 6 -1 -11 11 -9 14 -14 8 -10 -8 4 -13 0 -13 -10
0 -10 -5 -14 -12 -10 -7 4 -4 -1 6 -9 11 -9 25 -16 30 -16 6 -1 -4 -7 -23 -16
-19 -8 -31 -17 -28 -21 4 -3 -1 -12 -11 -20 -9 -8 -12 -12 -6 -9 22 11 64 15
59 5 -4 -5 -10 -7 -15 -4 -4 3 -14 -3 -21 -12 -12 -15 -12 -16 6 -10 19 7 19
7 1 -8 -18 -14 -41 -11 -32 4 3 4 -1 8 -8 8 -8 0 -12 -6 -9 -14 3 -7 -1 -13
-8 -13 -11 0 -11 -2 1 -9 8 -6 17 -8 21 -5 4 2 9 -3 12 -11 3 -7 21 -22 39
-31 18 -9 35 -20 38 -23 14 -19 130 -90 151 -92 13 -2 37 6 53 16 17 11 53 22
80 25 l51 5 -1 45 c-1 78 -8 120 -19 117 -5 -2 -11 -13 -13 -25 -2 -12 -8 -20
-13 -17 -5 3 -6 -1 -3 -9 3 -9 -1 -23 -10 -32 -9 -8 -14 -20 -11 -25 4 -5 -4
-9 -17 -9 -13 0 -18 4 -13 8 10 7 17 27 18 50 0 6 4 12 9 12 5 0 6 5 3 10 -3
6 1 10 9 10 9 0 16 5 16 11 0 5 -4 7 -10 4 -7 -4 -7 2 -1 18 6 14 7 28 4 31
-4 3 -1 6 5 6 7 0 12 5 12 11 0 5 -4 7 -10 4 -5 -3 -10 1 -10 9 0 8 5 18 10
21 6 4 7 12 3 18 -11 17 -10 31 2 39 6 5 5 8 -4 8 -11 0 -11 3 -1 15 7 8 9 15
4 15 -5 0 -2 5 6 10 8 5 10 10 5 10 -19 0 -15 40 3 40 15 0 15 2 2 10 -13 9
-13 10 0 10 12 0 12 2 2 8 -13 9 -6 42 9 42 5 0 8 3 7 8 -5 14 56 131 65 125
6 -4 7 -1 2 6 -11 18 39 66 99 95 28 14 94 41 146 61 52 20 99 40 103 45 9 8
-18 70 -31 70 -4 0 -18 -7 -30 -16z m-412 -338 c0 -2 -7 -7 -16 -10 -8 -3 -12
-2 -9 4 6 10 25 14 25 6z m-230 -226 c0 -5 -5 -10 -11 -10 -5 0 -7 5 -4 10 3
6 8 10 11 10 2 0 4 -4 4 -10z m-45 -150 c-3 -5 -12 -10 -18 -10 -7 0 -6 4 3
10 19 12 23 12 15 0z m-32 -51 c-8 -8 -13 -7 -18 2 -5 8 -4 10 3 5 7 -4 12 -2
12 5 0 7 3 9 7 6 4 -4 2 -12 -4 -18z"/>
<path d="M4415 2220 c-4 -6 -10 -8 -14 -6 -4 3 -8 -1 -8 -9 0 -13 4 -12 19 2
18 16 22 23 14 23 -3 0 -8 -5 -11 -10z"/>
<path d="M6871 2212 c-1 -8 -6 -10 -13 -6 -10 5 -10 4 -1 -6 15 -16 28 -8 20
12 -4 11 -6 11 -6 0z"/>
<path d="M4115 2200 c-3 -5 -1 -10 4 -10 6 0 11 5 11 10 0 6 -2 10 -4 10 -3 0
-8 -4 -11 -10z"/>
<path d="M8060 2198 c0 -6 18 -33 41 -60 22 -27 39 -56 37 -66 -5 -27 -22 -20
-33 15 -13 40 -62 82 -71 60 -3 -9 2 -27 11 -41 19 -28 11 -33 -18 -11 -25 18
-47 9 -47 -21 0 -19 -5 -24 -25 -24 -14 0 -29 -8 -35 -20 -6 -11 -21 -22 -35
-26 -13 -3 -31 -14 -40 -24 -9 -10 -23 -16 -32 -13 -8 3 -21 -4 -30 -17 -11
-15 -23 -21 -39 -17 -15 3 -28 -1 -33 -11 -6 -10 -16 -13 -31 -9 -16 4 -28 1
-35 -10 -9 -12 -16 -13 -31 -5 -14 8 -23 7 -36 -4 -13 -13 -20 -13 -37 -3 -24
15 -39 6 -23 -14 7 -8 9 -17 5 -21 -4 -4 -1 -11 7 -16 8 -5 11 -13 6 -17 -5
-4 -11 -2 -13 5 -9 24 -51 67 -59 60 -4 -5 4 -30 17 -58 21 -43 28 -49 55 -50
16 0 39 -7 50 -15 10 -8 30 -15 44 -15 22 -1 23 -2 5 -9 -19 -8 -19 -8 4 -20
12 -7 29 -10 37 -7 8 3 14 -1 14 -10 0 -8 -4 -12 -10 -9 -5 3 -27 7 -47 9 -21
2 -71 9 -111 16 -40 7 -75 10 -78 7 -8 -8 28 -47 44 -47 9 0 12 -6 8 -16 -3
-9 -2 -12 5 -8 6 3 17 -3 25 -14 8 -12 21 -19 29 -16 8 4 15 1 15 -4 0 -6 8
-13 18 -15 9 -2 5 -3 -10 -1 -16 2 -28 -1 -28 -6 0 -6 11 -10 25 -10 16 0 25
-6 25 -15 0 -8 6 -15 13 -15 8 0 8 -3 -2 -9 -22 -14 -5 -43 21 -37 13 3 17 3
11 0 -20 -9 -15 -20 12 -32 14 -6 25 -16 25 -22 0 -11 -62 28 -68 43 -2 4 -10
7 -19 7 -22 0 -46 27 -30 33 8 4 7 6 -3 7 -8 1 -22 3 -31 5 -11 2 -16 -3 -14
-14 2 -9 4 -16 5 -16 1 0 2 -15 3 -33 1 -17 -1 -32 -5 -32 -4 0 0 -16 9 -35 9
-19 21 -35 25 -35 5 0 6 -5 3 -10 -4 -6 -1 -17 5 -25 10 -12 10 -15 -1 -15
-10 0 -10 -3 -3 -8 6 -4 14 -17 18 -29 4 -13 12 -23 17 -23 6 0 8 -4 4 -9 -3
-5 -1 -12 5 -16 6 -4 8 -11 5 -16 -4 -5 0 -9 7 -9 9 0 9 -3 -2 -10 -8 -5 -10
-10 -5 -10 12 0 -16 -20 -29 -20 -5 0 -4 6 1 13 23 30 7 43 -32 25 -18 -8 -18
-8 2 -4 13 2 26 0 29 -5 3 -5 2 -8 -3 -7 -4 2 -10 -1 -11 -7 -2 -5 -8 -16 -14
-22 -7 -9 -7 -13 1 -13 7 0 9 -4 6 -10 -4 -7 3 -7 20 0 34 13 55 13 35 0 -8
-5 -10 -10 -5 -10 6 0 17 4 24 9 12 8 8 11 -14 17 -26 6 -27 8 -10 15 28 11
37 11 30 -1 -3 -5 3 -10 14 -10 12 0 21 -5 21 -11 0 -5 -6 -7 -12 -3 -7 4 -10
4 -6 -1 11 -11 -18 -36 -35 -29 -8 3 -18 1 -22 -5 -3 -6 -14 -11 -23 -11 -13
0 -13 2 4 16 18 15 18 15 -3 10 -34 -9 -60 -14 -45 -9 11 4 11 8 0 21 -9 10
-9 13 -1 9 8 -5 11 -1 8 14 -6 30 -10 32 -25 14 -11 -13 -10 -14 5 -9 13 5 16
4 11 -4 -4 -7 -15 -12 -24 -12 -15 0 -15 -2 -2 -10 12 -7 8 -11 -17 -16 -18
-4 -33 -12 -33 -19 0 -8 -8 -11 -20 -8 -11 3 -17 10 -13 16 3 6 1 7 -5 3 -12
-7 -86 26 -97 44 -4 6 -10 8 -14 6 -4 -3 -16 9 -26 25 -11 16 -27 29 -35 29
-12 0 -12 2 -2 9 10 6 4 14 -22 29 -20 12 -36 25 -37 29 -1 4 -2 19 -3 33 -6
55 -17 100 -25 95 -5 -2 -11 4 -14 15 -3 10 0 21 7 24 6 2 3 5 -6 5 -9 1 -20
-4 -23 -9 -9 -14 -35 7 -35 27 0 8 -5 11 -11 8 -6 -4 -8 -13 -5 -20 3 -8 -2
-19 -10 -25 -11 -10 -14 -10 -14 1 0 9 -4 8 -12 -3 -7 -9 -22 -18 -33 -21 -15
-4 -14 -5 7 -6 14 0 29 4 31 9 3 6 4 5 3 -2 -1 -7 -13 -16 -27 -20 -20 -6 -19
-7 8 -5 18 2 30 0 27 -5 -3 -4 -12 -8 -20 -8 -8 0 -12 -4 -9 -10 3 -5 1 -10
-4 -10 -6 0 -11 4 -11 8 0 5 -6 9 -14 9 -12 0 -12 -8 1 -51 23 -77 40 -103 86
-137 66 -48 89 -57 163 -64 89 -8 124 -15 124 -25 0 -19 104 -42 235 -50 77
-6 187 -15 245 -20 213 -21 457 -23 657 -6 170 14 219 20 311 41 12 3 22 10
22 16 0 6 -4 8 -10 4 -12 -7 -60 5 -60 15 0 5 8 11 18 13 9 2 5 3 -9 1 -15 -2
-35 3 -45 11 -11 8 -30 11 -44 9 -20 -5 -22 -3 -10 6 12 9 10 10 -10 5 -14 -4
-32 -15 -42 -26 -9 -10 -21 -19 -27 -19 -6 0 -11 -4 -11 -10 0 -5 -5 -10 -12
-10 -6 0 -20 -7 -30 -17 -10 -9 -18 -12 -18 -6 0 17 31 73 41 73 5 0 9 11 9
25 0 17 5 25 18 25 13 0 18 8 19 33 0 19 -1 23 -4 10 -6 -32 -20 -29 -20 4 0
23 26 68 27 46 0 -4 5 0 11 10 7 12 7 22 -1 35 -9 15 -10 14 -5 -5 5 -17 3
-21 -7 -18 -9 4 -13 24 -13 66 0 48 -2 57 -11 44 -8 -10 -14 -12 -19 -6 -7 12
5 39 18 40 8 1 10 11 2 11 -3 0 -12 0 -20 0 -8 0 -15 -7 -15 -15 0 -8 -5 -15
-11 -15 -6 0 -9 6 -6 14 3 7 0 19 -6 26 -9 9 -7 11 8 8 11 -1 20 2 20 9 0 6 3
15 8 19 4 4 7 12 7 18 0 6 -4 6 -11 -1 -6 -6 -18 -9 -25 -6 -16 6 -19 33 -4
33 6 0 10 5 10 10 0 6 -7 10 -15 10 -8 0 -15 -9 -15 -21 0 -16 -4 -19 -20 -14
-12 4 -20 2 -20 -5 0 -7 -8 -9 -21 -5 -15 5 -19 4 -15 -4 4 -6 2 -11 -3 -11
-21 0 -11 25 19 50 17 14 30 31 30 38 0 9 -6 7 -17 -6 -19 -23 -93 -41 -93
-24 0 6 9 8 20 5 24 -6 25 3 5 50 -8 20 -29 44 -45 54 -21 12 -30 24 -26 36 2
10 -2 21 -10 24 -9 3 -12 13 -9 24 5 14 1 19 -14 19 -27 0 -27 26 -1 33 11 3
20 10 20 16 0 7 -9 9 -23 6 -18 -5 -24 0 -34 24 -9 24 -8 31 4 35 12 5 13 9 3
21 -10 12 -10 15 0 15 18 0 3 51 -23 75 -18 16 -20 17 -14 2 3 -9 3 -17 -1
-17 -18 1 -27 18 -28 51 -1 48 -12 78 -23 60 -7 -10 -13 -7 -27 15 -23 37 -65
84 -76 84 -4 0 -8 -5 -8 -12z m20 -138 c0 -5 -4 -10 -9 -10 -6 0 -13 5 -16 10
-3 6 1 10 9 10 9 0 16 -4 16 -10z m80 -115 c0 -8 -4 -15 -9 -15 -13 0 -22 16
-14 24 11 11 23 6 23 -9z m-490 -96 c0 -6 -4 -7 -10 -4 -5 3 -10 11 -10 16 0
6 5 7 10 4 6 -3 10 -11 10 -16z m-65 -19 c3 -5 1 -10 -4 -10 -6 0 -11 5 -11
10 0 6 2 10 4 10 3 0 8 -4 11 -10z m119 -75 c3 -8 15 -15 26 -15 23 0 27 -18
5 -26 -19 -8 -65 22 -65 41 0 20 26 19 34 0z m82 -39 c-4 -18 -1 -25 14 -29
11 -3 20 -1 20 4 0 6 7 6 18 0 9 -5 28 -13 42 -19 20 -8 15 -9 -25 -5 -27 3
-57 7 -65 10 -8 3 -28 5 -45 4 -22 -1 -26 1 -16 8 8 5 20 7 28 4 12 -5 17 7
14 35 -1 6 3 12 10 12 7 0 9 -9 5 -24z m584 -100 c0 -3 -4 -8 -10 -11 -5 -3
-10 -1 -10 4 0 6 5 11 10 11 6 0 10 -2 10 -4z m124 -101 c-4 -8 -10 -15 -15
-15 -4 0 -6 7 -3 15 4 8 10 15 15 15 4 0 6 -7 3 -15z m-94 -5 c12 -8 11 -10
-7 -10 -13 0 -23 5 -23 10 0 13 11 13 30 0z m55 0 c3 -5 1 -10 -4 -10 -6 0
-11 5 -11 10 0 6 2 10 4 10 3 0 8 -4 11 -10z m-879 -47 c4 -21 11 -44 17 -50
6 -9 6 -13 -1 -13 -5 0 -17 21 -26 47 -19 55 -19 53 -6 53 5 0 12 -17 16 -37z
m854 18 c0 -5 -7 -12 -16 -15 -14 -5 -15 -4 -4 9 14 17 20 19 20 6z m120 -81
c24 -15 7 -18 -20 -3 -14 7 -18 13 -10 13 8 0 22 -4 30 -10z m-100 -54 c0 -3
-4 -8 -10 -11 -5 -3 -10 -1 -10 4 0 6 5 11 10 11 6 0 10 -2 10 -4z m-556 -126
c32 -17 64 -30 71 -30 23 0 34 -24 19 -38 -8 -7 -14 -9 -14 -4 0 5 -12 8 -27
5 -23 -3 -24 -2 -8 5 18 8 17 9 -8 16 -15 3 -26 10 -23 15 3 4 -6 13 -20 20
-31 14 -37 14 -29 1 4 -6 -1 -7 -11 -3 -12 4 -14 8 -6 11 10 3 10 7 1 18 -16
19 -13 18 55 -16z m-689 1 c-3 -6 3 -14 12 -20 10 -6 13 -11 7 -11 -15 0 -36
25 -27 33 10 10 15 8 8 -2z m621 -32 c3 -6 -5 -3 -20 6 -14 10 -26 19 -26 22
0 7 39 -17 46 -28z m714 1 c0 -12 -42 -51 -48 -45 -2 2 3 11 12 20 9 9 16 23
16 31 0 8 5 12 10 9 6 -3 10 -10 10 -15z m-973 -16 c-3 -3 -12 -4 -19 -1 -8 3
-5 6 6 6 11 1 17 -2 13 -5z m129 -34 c14 0 23 -4 20 -9 -4 -5 -1 -11 6 -13 8
-3 6 -7 -5 -11 -11 -4 -17 -1 -17 7 0 17 -28 16 -34 -1 -3 -7 -11 -13 -18 -13
-9 0 -9 3 2 10 13 8 13 11 1 22 -8 7 -11 8 -8 2 9 -15 -36 -34 -54 -23 -11 7
-10 9 4 9 11 0 31 9 45 21 16 12 28 16 30 10 2 -6 15 -11 28 -11z m77 -13 c-3
-7 4 -3 18 8 15 13 19 14 11 3 -17 -22 0 -32 50 -29 23 1 38 -3 38 -9 0 -7
-10 -9 -28 -5 -20 4 -33 1 -42 -10 -7 -8 -18 -15 -24 -15 -6 0 -2 8 9 17 20
16 16 16 -32 -4 -12 -4 -14 -3 -8 6 6 10 2 11 -16 6 -19 -5 -21 -4 -9 4 8 6
11 11 7 11 -4 0 -3 9 3 20 6 11 15 18 21 15 5 -4 6 -12 2 -18z m-303 -1 c0 -2
-7 -6 -15 -10 -8 -3 -15 -1 -15 4 0 6 7 10 15 10 8 0 15 -2 15 -4z m97 -22
c-3 -3 -12 -4 -19 -1 -8 3 -5 6 6 6 11 1 17 -2 13 -5z m118 -14 c-3 -5 -14
-10 -23 -9 -14 0 -13 2 3 9 27 11 27 11 20 0z m170 -10 c3 -5 1 -10 -4 -10 -6
0 -11 5 -11 10 0 6 2 10 4 10 3 0 8 -4 11 -10z m49 -5 c-10 -8 -23 -15 -28
-15 -6 0 -1 7 10 15 10 8 23 15 28 15 6 0 1 -7 -10 -15z"/>
<path d="M6825 2180 c-3 -5 -1 -10 4 -10 6 0 11 5 11 10 0 6 -2 10 -4 10 -3 0
-8 -4 -11 -10z"/>
<path d="M2523 2166 c2 -14 -5 -19 -30 -20 -26 -1 -30 2 -21 14 6 8 -2 2 -18
-15 -21 -22 -26 -25 -21 -10 7 19 6 19 -7 2 -9 -12 -15 -14 -18 -6 -2 6 -9 -1
-16 -17 -11 -24 -11 -26 1 -15 8 6 17 8 19 4 6 -17 125 -41 207 -42 51 0 95
-7 113 -15 18 -10 26 -11 21 -3 -4 7 1 5 11 -3 10 -8 25 -15 33 -16 8 -2 24
-11 36 -21 14 -13 18 -14 13 -3 -7 13 -6 13 6 0 18 -21 62 -39 84 -36 11 2 24
-1 31 -6 7 -6 14 -5 19 3 4 7 3 9 -4 5 -6 -3 -13 -2 -17 4 -3 5 -18 10 -33 10
-15 0 -40 12 -57 26 -30 26 -36 40 -26 59 3 6 -1 3 -11 -7 -24 -26 -31 -22
-12 7 9 14 12 25 6 25 -6 0 -15 -7 -20 -16 -8 -15 -12 -15 -40 0 -18 9 -32 13
-33 9 0 -5 -4 1 -9 12 l-9 20 -1 -20 c-1 -19 -1 -19 -11 -1 -8 13 -8 20 1 26
6 4 -6 7 -28 6 -22 -1 -38 -4 -35 -8 2 -5 -1 -8 -6 -8 -6 0 -11 7 -11 15 0 8
-6 12 -15 9 -24 -9 -38 5 -23 24 12 15 11 16 -4 3 -15 -11 -18 -11 -18 0 0 11
-2 11 -10 -1 -8 -13 -11 -12 -24 5 -14 19 -14 19 -13 1z m42 -26 c-3 -5 -12
-10 -18 -10 -7 0 -6 4 3 10 19 12 23 12 15 0z"/>
<path d="M4294 2158 l-19 -23 23 19 c21 18 27 26 19 26 -2 0 -12 -10 -23 -22z"/>
<path d="M3188 2153 c7 -3 16 -2 19 1 4 3 -2 6 -13 5 -11 0 -14 -3 -6 -6z"/>
<path d="M4140 2134 c0 -8 5 -12 10 -9 6 3 10 10 10 16 0 5 -4 9 -10 9 -5 0
-10 -7 -10 -16z"/>
<path d="M2375 2129 c-4 -6 -5 -12 -2 -15 2 -3 7 2 10 11 7 17 1 20 -8 4z"/>
<path d="M4190 2117 c-8 -7 -17 -21 -18 -32 -4 -22 -3 -21 21 18 19 30 19 32
-3 14z"/>
<path d="M2312 2104 c-10 -11 -10 -14 2 -14 8 0 17 6 19 13 4 10 6 10 6 0 1
-7 9 -13 19 -12 10 0 12 3 4 6 -6 2 -10 8 -8 12 9 13 -29 9 -42 -5z"/>
<path d="M3098 2113 c7 -3 16 -2 19 1 4 3 -2 6 -13 5 -11 0 -14 -3 -6 -6z"/>
<path d="M2750 2098 c0 -7 9 -10 26 -7 4 0 10 -5 14 -11 6 -9 12 -6 21 11 11
22 11 23 -4 10 -10 -8 -17 -9 -17 -3 0 6 -9 10 -20 9 -11 -1 -20 -5 -20 -9z"/>
<path d="M4429 2093 c-13 -16 -12 -17 4 -4 16 13 21 21 13 21 -2 0 -10 -8 -17
-17z"/>
<path d="M6498 2103 c-10 -2 -18 -9 -18 -14 0 -6 -5 -7 -12 -3 -7 4 -8 3 -4
-5 6 -9 11 -9 21 -1 7 6 18 9 25 8 7 -2 15 3 17 10 5 12 1 13 -29 5z"/>
<path d="M4534 2068 c12 -10 16 -20 11 -29 -5 -8 -5 -11 0 -7 4 4 14 0 22 -10
8 -9 6 -2 -4 17 -10 19 -25 36 -33 39 -9 3 -8 -1 4 -10z"/>
<path d="M6310 2070 c0 -5 5 -10 10 -10 6 0 10 5 10 10 0 6 -4 10 -10 10 -5 0
-10 -4 -10 -10z"/>
<path d="M7476 2054 c9 -39 13 -44 30 -44 20 0 18 8 -12 42 l-25 31 7 -29z"/>
<path d="M3190 2055 c7 -8 17 -15 22 -15 5 0 3 7 -6 15 -8 8 -18 15 -22 15 -3
0 -1 -7 6 -15z"/>
<path d="M4463 2058 c-15 -20 -25 -38 -20 -38 3 0 12 11 21 25 17 26 16 35 -1
13z"/>
<path d="M7410 2060 c0 -5 5 -10 11 -10 5 0 7 5 4 10 -3 6 -8 10 -11 10 -2 0
-4 -4 -4 -10z"/>
<path d="M2861 2044 c0 -11 3 -14 6 -6 3 7 2 16 -1 19 -3 4 -6 -2 -5 -13z"/>
<path d="M2890 2050 c-9 -6 -10 -10 -3 -10 6 0 15 5 18 10 8 12 4 12 -15 0z"/>
<path d="M6277 2041 c-4 -17 -3 -21 5 -13 5 5 8 16 6 23 -3 8 -7 3 -11 -10z"/>
<path d="M7124 2051 c3 -5 -1 -11 -9 -15 -8 -3 -15 -1 -15 4 0 6 -8 10 -17 10
-15 0 -15 -2 2 -14 11 -8 26 -12 35 -9 12 4 11 1 -2 -10 -10 -8 -16 -17 -13
-20 3 -4 2 -4 -2 -1 -5 3 -8 11 -8 17 0 5 -5 12 -12 14 -7 3 -10 -3 -6 -15 3
-12 -1 -19 -11 -19 -8 0 -13 4 -10 8 2 4 -2 9 -8 12 -10 3 -10 8 2 23 14 18
14 18 -3 5 -12 -9 -15 -21 -11 -35 6 -17 4 -19 -7 -9 -12 10 -18 8 -29 -10
-12 -21 -12 -21 5 -7 17 14 18 13 12 -4 -6 -14 -4 -17 8 -12 9 3 13 2 10 -4
-3 -6 -13 -10 -21 -10 -10 0 -12 -5 -8 -12 5 -8 1 -8 -12 2 -10 8 -16 10 -11
5 4 -4 0 -17 -10 -27 -9 -11 -11 -18 -5 -18 7 0 12 -5 12 -11 0 -5 -4 -7 -10
-4 -5 3 -10 1 -10 -5 0 -17 -26 -40 -35 -32 -5 4 -5 1 -1 -5 4 -7 14 -13 23
-13 14 0 14 -3 -3 -19 -10 -10 -23 -16 -29 -13 -5 3 -4 -2 4 -11 7 -9 18 -14
25 -11 6 3 4 0 -5 -8 -8 -7 -18 -23 -21 -36 -5 -19 -4 -21 8 -11 12 10 13 9 8
-4 -3 -8 -12 -18 -20 -21 -9 -3 -12 -10 -9 -16 3 -5 -2 -10 -11 -10 -16 0 -16
-1 2 -15 18 -15 18 -16 -6 -13 -36 3 -74 -20 -61 -36 6 -7 8 -15 6 -18 -3 -3
6 -3 20 -1 16 4 25 1 25 -7 0 -7 -7 -10 -15 -7 -8 4 -17 2 -20 -3 -7 -12 6
-41 16 -34 18 11 9 -9 -13 -27 -15 -14 -17 -19 -6 -19 9 0 14 -8 13 -22 -1
-13 -8 -23 -17 -22 -9 1 -13 -8 -12 -28 1 -16 4 -31 6 -34 3 -2 22 5 44 17 26
13 51 18 74 15 19 -2 27 -2 16 1 -16 4 -18 12 -13 56 11 99 48 233 89 320 23
48 45 87 50 87 6 0 8 6 6 12 -3 7 5 21 16 31 12 10 15 16 9 12 -7 -3 -13 -1
-13 4 0 6 5 11 10 11 15 0 50 39 40 45 -4 3 -10 0 -12 -7 -2 -6 -9 -8 -16 -4
-15 9 -4 38 12 29 8 -4 8 -2 -1 7 -6 7 -9 19 -6 26 3 8 0 14 -7 14 -6 0 -9 -4
-6 -9z m-248 -436 c1 -9 -5 -12 -18 -10 -27 6 -36 15 -15 15 10 0 17 5 17 12
0 15 13 1 16 -17z"/>
<path d="M3230 2037 c0 -13 7 -17 31 -15 17 1 33 7 36 12 4 5 -6 6 -22 2 -19
-5 -31 -3 -36 6 -7 10 -9 9 -9 -5z"/>
<path d="M6978 2043 c7 -3 16 -2 19 1 4 3 -2 6 -13 5 -11 0 -14 -3 -6 -6z"/>
<path d="M2905 2030 c-4 -6 -11 -8 -16 -5 -5 4 -9 2 -9 -3 0 -5 12 -14 28 -21
23 -10 25 -9 10 2 -13 10 -15 16 -6 25 7 7 9 12 6 12 -4 0 -10 -5 -13 -10z"/>
<path d="M7430 2025 c0 -8 4 -15 10 -15 5 0 7 7 4 15 -4 8 -8 15 -10 15 -2 0
-4 -7 -4 -15z"/>
<path d="M4191 2014 c0 -11 3 -14 6 -6 3 7 2 16 -1 19 -3 4 -6 -2 -5 -13z"/>
<path d="M8425 2020 c-3 -5 -1 -10 4 -10 6 0 11 5 11 10 0 6 -2 10 -4 10 -3 0
-8 -4 -11 -10z"/>
<path d="M4334 1998 l-19 -23 23 19 c12 11 22 21 22 23 0 8 -8 2 -26 -19z"/>
<path d="M4500 2006 c-6 -8 -17 -13 -24 -10 -7 3 -19 -3 -26 -13 -12 -15 -12
-16 0 -5 8 6 18 12 23 12 4 0 5 -6 1 -12 -4 -7 5 -2 19 11 15 14 27 26 27 28
0 7 -8 2 -20 -11z"/>
<path d="M6295 2010 c3 -5 8 -10 11 -10 2 0 4 5 4 10 0 6 -5 10 -11 10 -5 0
-7 -4 -4 -10z"/>
<path d="M7190 1999 c-7 -11 -9 -23 -6 -27 3 -3 6 0 6 7 0 7 4 10 8 7 4 -2 8
4 8 15 0 24 -3 24 -16 -2z"/>
<path d="M6928 1991 c3 -9 1 -12 -7 -7 -6 4 -11 4 -10 -1 4 -21 -2 -33 -15
-33 -10 0 -13 -7 -11 -20 2 -11 0 -18 -5 -15 -4 3 -22 -12 -39 -32 -18 -22
-26 -40 -20 -43 6 -4 4 -12 -5 -20 -9 -7 -13 -17 -9 -23 4 -6 0 -8 -9 -4 -12
4 -14 1 -11 -14 3 -10 10 -19 17 -19 6 0 2 -7 -8 -15 -10 -8 -23 -12 -27 -9
-16 9 -10 -3 8 -17 14 -12 16 -12 9 0 -6 9 -5 12 5 9 8 -3 13 -12 13 -20 -1
-8 5 -15 12 -15 7 0 11 4 9 8 -3 3 2 12 10 19 8 7 12 16 9 21 -3 5 0 9 5 9 6
0 11 7 11 15 0 8 5 15 11 15 5 0 7 5 4 10 -9 14 5 71 15 65 5 -3 12 0 16 6 4
8 3 9 -4 5 -7 -4 -12 -4 -12 1 0 13 49 105 65 123 13 14 12 16 -9 16 -17 0
-22 -4 -18 -15z"/>
<path d="M4587 1980 c3 -11 7 -20 9 -20 2 0 4 9 4 20 0 11 -4 20 -9 20 -5 0
-7 -9 -4 -20z"/>
<path d="M3168 1960 c-35 -6 -77 -42 -78 -65 0 -18 -92 -101 -143 -130 -57
-32 -100 -83 -115 -133 -6 -20 -14 -84 -17 -142 -5 -84 -4 -112 9 -140 20 -44
45 -74 75 -90 46 -24 157 -60 183 -60 31 0 45 -17 29 -33 -8 -8 -39 -7 -119 6
-59 9 -157 20 -217 23 -94 6 -112 4 -124 -9 -11 -14 -9 -17 11 -21 39 -8 248
-21 323 -19 39 0 115 2 170 3 57 1 138 -5 189 -14 66 -12 155 -16 351 -16 277
0 325 4 325 26 0 8 8 14 18 14 15 1 63 29 51 31 -2 0 -41 2 -86 3 -73 2 -83 0
-83 -16 0 -45 -131 -58 -300 -30 -80 13 -138 17 -190 12 -146 -12 -237 14
-327 94 -27 23 -71 57 -100 74 -126 80 -117 138 55 367 93 123 101 131 172
168 41 21 86 48 99 62 l24 23 -39 11 c-43 12 -90 12 -146 1z"/>
<path d="M7230 1951 c5 -11 15 -23 21 -27 6 -3 3 5 -6 20 -20 30 -30 35 -15 7z"/>
<path d="M4514 1928 l-29 -33 33 29 c17 17 32 31 32 33 0 8 -8 1 -36 -29z"/>
<path d="M6267 1946 c-4 -10 -1 -13 8 -9 8 3 12 9 9 14 -7 12 -11 11 -17 -5z"/>
<path d="M6566 1935 c4 -8 11 -15 16 -15 6 0 5 6 -2 15 -7 8 -14 15 -16 15 -2
0 -1 -7 2 -15z"/>
<path d="M4339 1923 c-13 -16 -12 -17 4 -4 16 13 21 21 13 21 -2 0 -10 -8 -17
-17z"/>
<path d="M4570 1905 c-12 -13 -26 -22 -31 -20 -4 3 -11 0 -15 -6 -5 -8 -3 -9
6 -4 10 6 12 4 6 -11 -5 -14 -2 -13 15 6 12 14 31 33 41 43 11 9 16 17 11 17
-5 0 -20 -11 -33 -25z"/>
<path d="M8302 1918 c-15 -15 -16 -48 -1 -48 6 0 8 7 5 16 -4 9 -1 23 5 30 14
17 7 18 -9 2z"/>
<path d="M7177 1908 c7 -8 9 -18 5 -22 -4 -4 -1 -6 7 -4 7 2 16 -3 19 -11 3
-9 0 -11 -9 -6 -8 5 -11 4 -6 -1 5 -5 12 -9 15 -9 4 0 13 -4 20 -9 11 -7 12
-4 3 12 -14 26 13 40 28 14 6 -9 10 -12 11 -7 0 26 -17 37 -39 26 -11 -7 -21
-8 -21 -4 0 5 -10 14 -22 22 -20 13 -22 12 -11 -1z"/>
<path d="M4605 1840 c-21 -22 -35 -40 -29 -40 5 0 18 10 28 23 10 12 26 30 34
40 28 32 6 17 -33 -23z"/>
<path d="M7410 1876 c0 -9 53 -97 62 -102 14 -9 1 33 -24 74 -16 26 -38 43
-38 28z"/>
<path d="M6549 1858 c-6 -12 -4 -46 2 -42 4 2 5 12 2 21 -5 12 -3 14 7 8 9 -5
11 -4 6 3 -7 11 -14 15 -17 10z"/>
<path d="M6725 1830 c3 -5 2 -10 -3 -10 -5 0 -12 -14 -16 -31 -3 -18 -10 -28
-16 -24 -7 4 -8 -3 -4 -21 5 -18 3 -25 -4 -20 -6 3 -14 1 -18 -5 -5 -8 -3 -9
6 -4 18 11 5 -55 -13 -68 -9 -6 -8 -7 3 -5 11 3 71 151 80 196 0 1 -5 2 -11 2
-5 0 -7 -4 -4 -10z"/>
<path d="M4379 1828 c-9 -30 -6 -37 11 -28 23 12 35 30 21 30 -6 0 -11 -4 -11
-10 0 -5 -5 -10 -11 -10 -5 0 -7 5 -4 10 3 6 4 10 1 10 -3 0 -6 -1 -7 -2z"/>
<path d="M4675 1810 c-13 -14 -22 -17 -30 -10 -9 7 -16 6 -25 -5 -7 -8 -9 -15
-5 -15 4 0 1 -8 -6 -17 -13 -16 -12 -17 4 -4 15 12 17 11 17 -3 0 -13 4 -12
25 6 14 12 25 28 25 35 0 8 4 12 8 9 5 -3 9 1 9 9 0 19 0 19 -22 -5z m-28 -36
c-9 -9 -28 6 -21 18 4 6 10 6 17 -1 6 -6 8 -13 4 -17z"/>
<path d="M4430 1770 c-19 -17 -30 -30 -24 -30 6 0 23 14 39 30 36 38 30 38
-15 0z"/>
<path d="M5530 1796 c0 -2 7 -7 16 -10 8 -3 12 -2 9 4 -6 10 -25 14 -25 6z"/>
<path d="M6510 1790 c0 -5 5 -10 11 -10 5 0 7 5 4 10 -3 6 -8 10 -11 10 -2 0
-4 -4 -4 -10z"/>
<path d="M7100 1790 c8 -5 20 -10 25 -10 6 0 3 5 -5 10 -8 5 -19 10 -25 10 -5
0 -3 -5 5 -10z"/>
<path d="M6490 1781 c0 -6 4 -13 10 -16 6 -3 7 1 4 9 -7 18 -14 21 -14 7z"/>
<path d="M4732 1768 c2 -7 -4 -12 -12 -10 -8 2 -12 0 -7 -4 4 -4 -5 -20 -20
-36 l-27 -28 27 2 c14 1 24 4 22 7 -3 2 3 13 12 23 20 22 25 46 12 54 -5 3 -8
0 -7 -8z"/>
<path d="M5524 1754 c15 -15 30 -23 34 -19 4 4 -1 12 -10 19 -10 7 -16 15 -13
17 2 3 -6 6 -17 6 -20 2 -20 0 6 -23z"/>
<path d="M6770 1771 c0 -6 4 -13 10 -16 6 -3 7 1 4 9 -7 18 -14 21 -14 7z"/>
<path d="M7285 1761 c-3 -5 -2 -12 3 -15 5 -3 9 1 9 9 0 17 -3 19 -12 6z"/>
<path d="M8394 1749 c-3 -6 -1 -16 5 -22 8 -8 11 -5 11 11 0 24 -5 28 -16 11z"/>
<path d="M6287 1741 c-17 -6 -17 -8 -3 -20 9 -7 16 -12 17 -10 5 24 7 39 6 38
-1 0 -10 -4 -20 -8z"/>
<path d="M4469 1733 c-1 -5 -1 -12 0 -17 1 -5 -4 -13 -11 -17 -7 -4 -9 -11 -6
-15 4 -3 18 6 32 21 26 28 37 50 14 27 -15 -15 -32 -16 -23 -2 3 6 4 10 1 10
-3 0 -7 -3 -7 -7z"/>
<path d="M4795 1730 c-4 -6 -14 -9 -22 -8 -9 2 -18 -3 -21 -11 -3 -10 0 -11 9
-5 10 6 9 1 -3 -16 -9 -14 -22 -24 -28 -22 -6 1 -9 -2 -5 -7 3 -6 13 -7 22 -4
11 4 14 3 9 -5 -4 -7 -2 -12 3 -12 10 0 15 13 13 31 -1 4 8 15 20 25 14 13 19
14 13 4 -4 -8 -4 -12 0 -7 11 10 14 47 4 47 -4 0 -11 -5 -14 -10z"/>
<path d="M7197 1707 c-3 -8 1 -14 8 -14 7 0 11 6 8 14 -3 7 -6 13 -8 13 -2 0
-5 -6 -8 -13z"/>
<path d="M4350 1701 c0 -7 -4 -10 -9 -7 -5 4 -7 -4 -3 -16 l5 -22 9 24 c5 12
6 25 3 28 -3 3 -5 0 -5 -7z"/>
<path d="M4830 1690 c-28 -22 -45 -26 -34 -8 5 7 3 8 -5 3 -9 -5 -10 -10 -2
-18 7 -7 7 -16 0 -30 -8 -14 -8 -18 0 -13 6 4 11 2 11 -4 0 -6 5 -8 10 -5 6 3
13 0 16 -8 8 -21 36 -17 67 9 16 13 23 24 16 24 -10 0 -10 3 -1 12 15 15 15
28 1 28 -5 0 -7 -4 -4 -10 3 -5 -1 -11 -9 -11 -9 -1 -21 -2 -27 -3 -6 0 -17
-9 -24 -20 -8 -10 -19 -15 -25 -11 -7 4 0 19 20 41 43 49 38 61 -10 24z"/>
<path d="M6777 1685 c-4 -8 -3 -16 1 -19 4 -3 9 4 9 15 2 23 -3 25 -10 4z"/>
<path d="M7231 1684 c0 -11 3 -14 6 -6 3 7 2 16 -1 19 -3 4 -6 -2 -5 -13z"/>
<path d="M7409 1693 c0 -4 -3 -17 -5 -28 -3 -11 -6 -26 -6 -32 -1 -7 -5 -13
-10 -13 -4 0 -8 6 -8 13 0 6 -5 4 -11 -6 -8 -14 -7 -23 7 -38 12 -13 13 -19 4
-19 -10 0 -9 -4 1 -17 12 -15 12 -16 -5 -10 -17 7 -17 6 -5 -10 12 -15 12 -16
-5 -9 -20 7 -20 6 -1 -14 16 -18 17 -20 2 -14 -18 7 -19 5 -21 -55 -1 -28 2
-37 10 -30 8 6 10 1 8 -17 -1 -14 -5 -28 -8 -31 -3 -4 -1 -12 5 -20 8 -8 8
-13 1 -13 -16 0 -20 23 -9 45 l10 20 -20 -20 c-11 -11 -16 -21 -12 -23 5 -2 9
-8 9 -14 0 -6 -7 -7 -16 -4 -8 3 -12 2 -9 -4 3 -6 15 -10 26 -10 10 0 19 -4
19 -10 0 -5 -8 -10 -17 -10 -15 0 -15 -2 -4 -9 10 -7 19 -4 27 7 11 15 12 12
9 -17 -2 -18 -10 -40 -16 -47 -7 -8 -9 -17 -5 -21 3 -3 6 -1 6 5 0 6 15 16 34
22 19 6 40 19 48 28 12 15 11 16 -4 4 -14 -11 -16 -11 -11 7 3 12 9 18 14 16
4 -3 6 4 4 15 -2 11 3 24 13 30 11 6 12 9 4 10 -10 0 -10 3 2 15 20 20 33 19
41 -5 7 -22 30 -27 41 -8 5 8 2 9 -11 4 -15 -5 -16 -4 -5 9 11 13 10 14 -4 9
-11 -4 -16 -1 -16 11 0 11 -5 15 -16 11 -8 -3 -12 -2 -9 4 3 6 0 10 -7 10 -9
0 -9 3 2 10 10 6 11 10 3 10 -13 0 -12 29 2 137 6 49 5 55 -21 82 -15 17 -32
27 -37 24 -6 -3 -7 -1 -3 5 3 6 2 13 -4 17 -5 3 -10 3 -11 -2z m-19 -94 c0 -6
-4 -7 -10 -4 -5 3 -10 11 -10 16 0 6 5 7 10 4 6 -3 10 -11 10 -16z m-20 -150
c-14 -25 -17 -24 -14 4 3 30 3 29 14 22 7 -4 7 -13 0 -26z m45 -138 c3 -5 2
-12 -3 -15 -5 -3 -9 1 -9 9 0 17 3 19 12 6z m-8 -57 c-3 -3 -12 -4 -19 -1 -8
3 -5 6 6 6 11 1 17 -2 13 -5z"/>
<path d="M7256 1675 c-9 -26 -7 -32 5 -12 6 10 9 21 6 23 -2 3 -7 -2 -11 -11z"/>
<path d="M8427 1669 c4 -13 8 -18 11 -10 2 7 -1 18 -6 23 -8 8 -9 4 -5 -13z"/>
<path d="M4524 1655 c-9 -14 -20 -22 -25 -19 -5 3 -6 -1 -3 -9 6 -18 47 -15
50 4 1 8 5 22 9 32 11 26 -12 21 -31 -8z"/>
<path d="M5011 1661 c-7 -5 -11 -13 -9 -17 3 -5 2 -18 -3 -29 l-8 -20 0 20
c-1 17 -3 17 -11 5 -8 -12 -10 -9 -10 13 0 29 -7 33 -30 16 -12 -9 -11 -10 5
-5 20 6 20 6 1 -9 -11 -8 -25 -15 -31 -15 -7 0 -19 -8 -28 -18 -13 -14 -14
-21 -5 -30 7 -7 18 -12 25 -12 7 0 13 -5 13 -11 0 -15 39 -1 77 29 19 14 30
29 26 36 -4 6 1 5 10 -3 11 -8 17 -9 17 -2 0 6 11 13 24 17 14 3 33 15 43 27
16 19 16 20 1 8 -11 -8 -18 -9 -18 -3 0 11 -31 9 -51 -4 -6 -3 -14 -2 -18 4
-4 6 -12 7 -20 3z"/>
<path d="M6246 1662 c-2 -4 6 -8 19 -8 13 0 21 4 19 8 -3 4 -11 8 -19 8 -8 0
-16 -4 -19 -8z"/>
<path d="M7186 1653 c-6 -14 -5 -15 5 -6 7 7 10 15 7 18 -3 3 -9 -2 -12 -12z"/>
<path d="M4829 1643 c-13 -16 -12 -17 4 -4 16 13 21 21 13 21 -2 0 -10 -8 -17
-17z"/>
<path d="M6796 1642 c-3 -5 1 -9 9 -9 8 0 12 4 9 9 -3 4 -7 8 -9 8 -2 0 -6 -4
-9 -8z"/>
<path d="M8510 1639 c0 -5 5 -7 10 -4 6 3 10 8 10 11 0 2 -4 4 -10 4 -5 0 -10
-5 -10 -11z"/>
<path d="M6654 1614 c3 -9 6 -18 6 -20 0 -3 5 -2 10 1 16 10 12 35 -6 35 -11
0 -14 -5 -10 -16z"/>
<path d="M7241 1612 c-11 -20 2 -52 13 -33 4 6 2 11 -4 11 -8 0 -8 6 0 20 6
11 8 20 6 20 -3 0 -10 -8 -15 -18z"/>
<path d="M6253 1613 c4 -3 2 -12 -4 -19 -8 -9 -5 -11 11 -7 16 4 18 8 9 19 -6
8 -14 14 -17 14 -3 0 -2 -3 1 -7z"/>
<path d="M8505 1610 c-3 -5 1 -10 10 -10 9 0 13 5 10 10 -3 6 -8 10 -10 10 -2
0 -7 -4 -10 -10z"/>
<path d="M4609 1593 c-13 -16 -12 -17 4 -4 16 13 21 21 13 21 -2 0 -10 -8 -17
-17z"/>
<path d="M6761 1587 c-6 -8 -8 -17 -4 -20 3 -4 1 -7 -4 -7 -6 0 -14 6 -16 13
-4 7 -6 6 -6 -5 -1 -9 -4 -18 -8 -21 -5 -2 -2 -2 5 -1 6 2 12 -1 12 -6 0 -6
-8 -10 -17 -10 -10 0 -14 -4 -8 -8 17 -12 17 -35 1 -29 -9 4 -18 1 -22 -5 -4
-6 -3 -8 3 -5 16 10 24 -18 10 -33 -9 -10 -9 -11 0 -6 6 3 14 2 18 -4 3 -5 1
-10 -4 -10 -22 0 -11 -41 14 -52 13 -6 22 -14 20 -18 -2 -4 6 -5 19 -3 18 4
26 14 30 38 9 48 -4 157 -20 176 -8 9 -11 19 -7 22 3 4 4 7 1 7 -3 0 -11 -6
-17 -13z"/>
<path d="M6652 1568 c6 -18 28 -21 28 -4 0 9 -7 16 -16 16 -9 0 -14 -5 -12
-12z"/>
<path d="M7199 1563 c-13 -17 -13 -17 6 -3 11 8 22 16 24 17 2 2 0 3 -6 3 -6
0 -17 -8 -24 -17z"/>
<path d="M7575 1570 c-3 -5 -1 -10 4 -10 6 0 11 5 11 10 0 6 -2 10 -4 10 -3 0
-8 -4 -11 -10z"/>
<path d="M7099 1533 c0 -5 -2 -18 -5 -30 -2 -12 1 -25 7 -29 7 -4 10 -1 7 7
-3 8 -1 24 3 37 5 13 5 22 -1 22 -6 0 -10 -3 -11 -7z"/>
<path d="M4130 1513 c0 -4 14 -26 30 -47 28 -37 30 -38 30 -14 0 23 -16 44
-47 62 -7 4 -13 4 -13 -1z"/>
<path d="M7237 1509 c7 -7 15 -10 18 -7 3 3 -2 9 -12 12 -14 6 -15 5 -6 -5z"/>
<path d="M5708 1393 c7 -3 16 -2 19 1 4 3 -2 6 -13 5 -11 0 -14 -3 -6 -6z"/>
<path d="M6220 1380 c0 -5 5 -10 11 -10 5 0 7 5 4 10 -3 6 -8 10 -11 10 -2 0
-4 -4 -4 -10z"/>
<path d="M6220 1361 l-45 -6 69 -8 c38 -4 71 -5 74 -2 3 3 -4 5 -16 5 -12 0
-22 5 -22 10 0 6 -3 9 -7 8 -5 0 -28 -4 -53 -7z"/>
<path d="M7224 1344 c9 -6 14 -14 11 -17 -3 -4 -2 -5 2 -2 15 12 10 31 -9 31
-17 0 -17 -2 -4 -12z"/>
<path d="M7193 1327 c1 -15 6 -27 11 -26 5 0 13 -5 17 -13 6 -9 9 -9 9 -1 0 6
-5 15 -11 18 -6 4 -15 17 -20 29 -8 19 -8 18 -6 -7z"/>
<path d="M7523 1316 c0 -8 6 -12 15 -8 11 4 10 -1 -4 -24 l-18 -29 23 23 c18
18 20 26 11 37 -16 19 -27 19 -27 1z"/>
<path d="M7247 1293 c-10 -9 -9 -23 1 -23 5 0 9 7 9 15 0 17 -1 18 -10 8z"/>
<path d="M7330 1270 c8 -5 20 -10 25 -10 6 0 3 5 -5 10 -8 5 -19 10 -25 10 -5
0 -3 -5 5 -10z"/>
<path d="M7552 1275 c4 -5 2 -15 -5 -24 -11 -14 -10 -14 6 -2 14 11 20 11 34
0 11 -9 14 -10 9 -2 -4 7 -17 18 -29 24 -12 7 -19 8 -15 4z"/>
<path d="M7268 1253 c6 -3 10 -8 8 -12 -3 -4 1 -8 8 -8 22 0 14 23 -8 24 -12
1 -15 -1 -8 -4z"/>
<path d="M7510 1239 c0 -5 5 -7 10 -4 6 3 10 8 10 11 0 2 -4 4 -10 4 -5 0 -10
-5 -10 -11z"/>
<path d="M7295 1210 c3 -5 8 -10 11 -10 2 0 4 5 4 10 0 6 -5 10 -11 10 -5 0
-7 -4 -4 -10z"/>
<path d="M7384 1209 c-13 -5 -7 -8 24 -8 23 -1 42 1 42 3 0 8 -48 12 -66 5z"/>
<path d="M7465 1210 c-7 -12 2 -30 16 -30 5 0 9 5 9 11 0 5 -4 7 -10 4 -5 -3
-10 -2 -10 4 0 5 10 12 23 14 22 4 22 4 0 6 -12 0 -25 -3 -28 -9z"/>
<path d="M2380 1200 c-21 -7 -21 -8 -5 -9 11 0 27 4 35 9 18 11 5 11 -30 0z"/>
<path d="M7325 1180 c3 -5 8 -10 11 -10 2 0 4 5 4 10 0 6 -5 10 -11 10 -5 0
-7 -4 -4 -10z"/>
<path d="M7390 1180 c14 -4 18 -9 10 -9 -11 -1 -10 -4 4 -13 14 -8 24 -8 38 1
11 7 18 7 18 1 0 -5 5 -10 12 -10 8 0 7 5 -3 16 -9 8 -36 17 -60 19 -34 3 -38
2 -19 -5z m47 -16 c-3 -3 -12 -4 -19 -1 -8 3 -5 6 6 6 11 1 17 -2 13 -5z"/>
<path d="M2435 1149 c-22 -5 -72 -16 -112 -25 -39 -9 -76 -13 -81 -10 -5 3
-15 -1 -22 -9 -7 -8 -16 -13 -20 -10 -5 3 -15 -2 -24 -10 -12 -13 -47 -16
-183 -17 -161 -2 -174 0 -314 34 -135 32 -217 39 -203 17 8 -14 -73 -1 -111
17 -21 10 -43 13 -56 9 -23 -7 -23 -8 4 -22 84 -43 283 -72 769 -108 l347 -26
33 33 c18 18 41 45 51 61 9 15 24 38 33 52 l16 25 -43 -1 c-24 -1 -62 -5 -84
-10z"/>
<path d="M5420 1043 c-115 -12 -188 -43 -102 -43 21 0 89 -6 152 -14 179 -21
188 -19 150 34 -21 29 -24 30 -93 28 -40 0 -88 -3 -107 -5z"/>
<path d="M5975 1000 c-8 -12 4 -17 73 -25 63 -7 68 0 10 15 -24 6 -50 13 -60
16 -9 3 -19 0 -23 -6z"/>
<path d="M5286 930 l-210 -5 -8 -32 c-6 -22 -19 -38 -41 -49 -37 -19 -87 -63
-87 -77 0 -6 70 -7 183 -3 100 3 250 2 332 -2 108 -7 152 -6 157 2 4 6 8 48 8
94 l0 82 -62 -2 c-35 -1 -157 -5 -272 -8z"/>
<path d="M6051 897 c-15 -15 -14 -114 2 -124 15 -9 1036 -4 1245 7 153 8 199
19 151 39 -44 18 -291 37 -669 51 -304 12 -643 29 -686 34 -18 3 -37 -1 -43
-7z"/>
<path d="M4598 818 c-27 -22 -29 -46 -5 -54 28 -9 196 -9 205 1 4 3 -8 20 -26
36 -28 26 -40 29 -95 29 -36 0 -70 -5 -79 -12z"/>
</g>
</svg>
