<svg width="20" height="20" viewBox="0 0 20 20" fill="none" xmlns="http://www.w3.org/2000/svg">
<g id="thumbs-down" clip-path="url(#clip0_145_1780)">
<path id="Icon" d="M14.1672 1.66668H16.3922C16.8638 1.65834 17.3221 1.82346 17.68 2.1307C18.038 2.43793 18.2706 2.8659 18.3338 3.33335V9.16668C18.2706 9.63413 18.038 10.0621 17.68 10.3693C17.3221 10.6766 16.8638 10.8417 16.3922 10.8334H14.1672M8.33385 12.5V15.8334C8.33385 16.4964 8.59724 17.1323 9.06608 17.6011C9.53492 18.07 10.1708 18.3334 10.8338 18.3334L14.1672 10.8334V1.66668H4.76718C4.36524 1.66214 3.9752 1.80301 3.66893 2.06334C3.36265 2.32368 3.16078 2.68593 3.10051 3.08335L1.95051 10.5833C1.91426 10.8222 1.93037 11.0661 1.99773 11.2981C2.06509 11.5302 2.1821 11.7448 2.34063 11.9271C2.49917 12.1094 2.69545 12.2551 2.91587 12.354C3.13629 12.4529 3.37559 12.5028 3.61718 12.5H8.33385Z" stroke="#A36800" stroke-width="2" stroke-linecap="round" stroke-linejoin="round"/>
</g>
<defs>
<clipPath id="clip0_145_1780">
<rect width="20" height="20" fill="white"/>
</clipPath>
</defs>
</svg>
